<svg xmlns="http://www.w3.org/2000/svg" xmlns:xlink="http://www.w3.org/1999/xlink" xmlns:fi="http://pattern.flaticon.com/" x="0" y="0" width="700" height="350" viewBox="0 0 700 350"><rect x="0px" y="0px" width="100%" height="100%" opacity="1" fill="#121c1f"/><defs><g transform="matrix(0.186953380161723 0.050094007236602345 -0.050094007236602345 0.186953380161723 318.1801944538049 294.8864810887849)" id="L1_170"><rect x="240px" y="65px" width="30px" height="55px" fill="#ff9926"/><rect x="240px" y="135px" width="75px" height="55px" fill="#ff9926"/><path d="M395,337.5c0-4.143,3.358-7.5,7.5-7.5h2.5v-55H240v12.5c0,4.143-3.358,7.5-7.5,7.5v15   c4.142,0,7.5,3.357,7.5,7.5V330h132.5c4.142,0,7.5,3.357,7.5,7.5s-3.358,7.5-7.5,7.5H240v55h210v-55h-47.5   C398.357,345,395,341.643,395,337.5z M273,385c-4.411,0-8-3.589-8-8s3.589-8,8-8s8,3.589,8,8S277.411,385,273,385z M313,376   c-4.411,0-8-3.589-8-8s3.589-8,8-8s8,3.589,8,8S317.411,376,313,376z" fill="#ff9926"/><path d="M240,260h120v-55H240V260z M327,229c4.411,0,8,3.589,8,8s-3.589,8-8,8s-8-3.589-8-8   S322.588,229,327,229z" fill="#ff9926"/><path d="M225,287.5V275H60v55h165v-12.5c0-4.143,3.358-7.5,7.5-7.5v-15C228.358,295,225,291.643,225,287.5z" fill="#fecc33"/><rect x="15px" y="345px" width="210px" height="55px" fill="#fecc33"/><path d="M225,205h-22.5c-4.142,0-7.5-3.357-7.5-7.5s3.358-7.5,7.5-7.5H225v-55h-75v55h22.5   c4.142,0,7.5,3.357,7.5,7.5s-3.358,7.5-7.5,7.5H105v55h120V205z" fill="#fecc33"/><rect x="195px" y="65px" width="30px" height="55px" fill="#fecc33"/><path d="M457.5,330H420v-62.5c0-4.143-3.358-7.5-7.5-7.5H375v-62.5c0-4.143-3.358-7.5-7.5-7.5H330v-62.5c0-4.143-3.358-7.5-7.5-7.5   H285V57.5c0-4.143-3.358-7.5-7.5-7.5h-90c-4.142,0-7.5,3.357-7.5,7.5V120h-37.5c-4.142,0-7.5,3.357-7.5,7.5V190H97.5   c-4.142,0-7.5,3.357-7.5,7.5V260H52.5c-4.142,0-7.5,3.357-7.5,7.5V330H7.5c-4.142,0-7.5,3.357-7.5,7.5v70   c0,4.143,3.358,7.5,7.5,7.5h450c4.142,0,7.5-3.357,7.5-7.5v-70C465,333.357,461.642,330,457.5,330z M450,400H240v-55h132.5   c4.142,0,7.5-3.357,7.5-7.5s-3.358-7.5-7.5-7.5H240v-12.5c0-4.143-3.358-7.5-7.5-7.5s-7.5,3.357-7.5,7.5V330H60v-55h165v12.5   c0,4.143,3.358,7.5,7.5,7.5s7.5-3.357,7.5-7.5V275h165v55h-2.5c-4.142,0-7.5,3.357-7.5,7.5s3.358,7.5,7.5,7.5H450V400z M15,345h210   v55H15V345z M105,205h67.5c4.142,0,7.5-3.357,7.5-7.5s-3.358-7.5-7.5-7.5H150v-55h75v55h-22.5c-4.142,0-7.5,3.357-7.5,7.5   s3.358,7.5,7.5,7.5H225v55H105V205z M195,65h30v55h-30V65z M315,135v55h-75v-55H315z M240,120V65h30v55H240z M360,205v55H240v-55   H360z"/><path d="M327,245c4.411,0,8-3.589,8-8s-3.589-8-8-8s-8,3.589-8,8S322.588,245,327,245z"/><path d="M273,369c-4.411,0-8,3.589-8,8s3.589,8,8,8s8-3.589,8-8S277.411,369,273,369z"/><path d="M313,360c-4.411,0-8,3.589-8,8s3.589,8,8,8s8-3.589,8-8S317.411,360,313,360z"/></g><g transform="matrix(0.04301075264811516 0 0 0.04301075264811516 252.5 340)" id="L1_171"><path d="M293.669,362.448V450H450v-80.071H316.17c-4.142,0-7.499-3.357-7.5-7.499h-15   C293.67,362.436,293.669,362.442,293.669,362.448z" fill="#fecc33"/><path d="M232.5,316.259c-22.904,0-41.956,16.767-45.55,38.669h91.101   C274.456,333.026,255.404,316.259,232.5,316.259z" fill="#e43017"/><path d="M148.83,369.929H15V450h156.331v-87.552c0-0.006-0.001-0.012-0.001-0.018h-15   C156.329,366.572,152.972,369.929,148.83,369.929z" fill="#fecc33"/><path d="M139.395,223.908C143.227,175.896,183.52,138,232.5,138s89.273,37.896,93.105,85.908h17.533   c0.959-7.805,3.403-15.153,7.023-21.769v-31.181c-4.142,0-7.5-3.358-7.5-7.5v-62.55H122.338v62.55c0,4.142-3.357,7.5-7.5,7.5   v31.181c3.62,6.616,6.064,13.965,7.023,21.769H139.395z" fill="#ffffff"/><path d="M310.54,85.908C306.751,46.18,273.203,15,232.5,15c-40.703,0-74.251,31.18-78.04,70.908H310.54z" fill="#fecc33"/><path d="M310.54,223.908C306.751,184.18,273.203,153,232.5,153c-40.703,0-74.251,31.18-78.04,70.908H310.54z   " fill="#fecc33"/><path d="M106.719,223.908c-3.594-21.902-22.646-38.669-45.55-38.669s-41.956,16.767-45.55,38.669H106.719z" fill="#fecc33"/><path d="M403.831,185.238c-22.904,0-41.956,16.767-45.55,38.669h91.101   C445.787,202.005,426.735,185.238,403.831,185.238z" fill="#fecc33"/><path d="M15,354.929h133.83c4.143,0,7.5,3.358,7.5,7.5h15c0-0.013,0.002-0.026,0.002-0.039   c0.021-33.711,27.453-61.13,61.168-61.13c33.715,0,61.147,27.419,61.168,61.13c0,0.013,0.002,0.026,0.002,0.039h15   c0-4.142,3.357-7.5,7.5-7.5H450V238.908H15V354.929z" fill="#ff9926"/><path d="M122.338,163.458v-62.55h220.324v62.55c0,4.142,3.357,7.5,7.5,7.5h0c4.143,0,7.5-3.358,7.5-7.5v-70.05   c0-4.142-3.357-7.5-7.5-7.5h-24.557C321.773,37.896,281.48,0,232.5,0s-89.273,37.896-93.105,85.908h-24.557   c-4.143,0-7.5,3.358-7.5,7.5v70.05c0,4.142,3.357,7.5,7.5,7.5h0C118.981,170.957,122.338,167.599,122.338,163.458z M232.5,15   c40.703,0,74.251,31.18,78.04,70.908H154.46C158.249,46.18,191.797,15,232.5,15z"/><path d="M457.5,94.68c-4.143,0-7.5,3.358-7.5,7.5v89.17c-11.224-12.919-27.752-21.112-46.169-21.112   c-23.129,0-43.28,12.913-53.669,31.9c-3.62,6.616-6.064,13.965-7.023,21.769h-17.533C321.773,175.896,281.48,138,232.5,138   s-89.273,37.896-93.105,85.908h-17.533c-0.959-7.805-3.403-15.153-7.023-21.769c-10.389-18.987-30.541-31.9-53.669-31.9   c-18.417,0-34.945,8.193-46.169,21.112v-89.17c0-4.142-3.357-7.5-7.5-7.5S0,98.038,0,102.18v129.228V457.5   c0,4.142,3.357,7.5,7.5,7.5h171.331c4.143,0,7.5-3.358,7.5-7.5v-87.571h92.338V457.5c0,4.142,3.357,7.5,7.5,7.5H457.5   c4.143,0,7.5-3.358,7.5-7.5V231.408V102.18C465,98.038,461.643,94.68,457.5,94.68z M450,354.929H316.17c-4.143,0-7.5,3.358-7.5,7.5   v0v0.001c0.001,4.142,3.358,7.499,7.5,7.499H450V450H293.669v-87.552c0-0.006,0.001-0.012,0.001-0.018v-0.001v0   c0-0.013-0.002-0.026-0.002-0.039c-0.021-33.711-27.453-61.13-61.168-61.13c-33.715,0-61.147,27.419-61.168,61.13   c0,0.013-0.002,0.026-0.002,0.039v0v0.001c0,0.006,0.001,0.012,0.001,0.018V450H15v-80.071h133.83c4.142,0,7.499-3.357,7.5-7.499   v-0.001v0c0-4.142-3.357-7.5-7.5-7.5H15V238.908h435V354.929z M232.5,316.259c22.904,0,41.956,16.767,45.55,38.669H186.95   C190.544,333.026,209.596,316.259,232.5,316.259z M61.169,185.238c22.904,0,41.956,16.767,45.55,38.669H15.619   C19.213,202.005,38.265,185.238,61.169,185.238z M358.281,223.908c3.594-21.902,22.646-38.669,45.55-38.669   s41.956,16.767,45.55,38.669H358.281z M232.5,153c40.703,0,74.251,31.18,78.04,70.908H154.46C158.249,184.18,191.797,153,232.5,153   z"/></g><g transform="matrix(0.1505376398563385 0 0 0.1505376398563385 315 140)" id="L1_172"><path d="M76.375,435h-22.5v15h162.731v-15H106.375c-4.142,0-7.5-3.358-7.5-7.5h-15   C83.875,431.642,80.517,435,76.375,435z" fill="#fecc33"/><path d="M53.875,420h22.5c4.142,0,7.5,3.358,7.5,7.5h15c0-4.142,3.358-7.5,7.5-7.5h110.231v-15H53.875V420z" fill="#ff9926"/><path d="M166.818,201.399v-49.6h-7.552c-58.113,0-105.391,47.278-105.391,105.391V390h162.731V258.534   C188.553,254.666,166.818,230.443,166.818,201.399z" fill="#0c80e4"/><path d="M337.576,244.071h35.894c14.853,0,18.524-8.733,29.318-44.972h-82.579   c-24.417,0-31.365-10.336-39.411-22.304c-2.052-3.052-4.173-6.208-6.804-9.581c-8.539-10.949-19.608-15.415-38.207-15.415h-22.101   c-4.142,0-7.5-3.358-7.5-7.5c-5.164,0-10.351,0-15,0c0,4.142-3.358,7.5-7.5,7.5h-1.867v32.299h72.089   c2.404,0,4.662,1.152,6.073,3.099l10.509,14.501c2.431,3.354,1.682,8.043-1.672,10.474c-1.33,0.964-2.869,1.428-4.395,1.428   c-2.323,0-4.612-1.075-6.079-3.1l-8.264-11.402h-68.262v2.3c0,23.358,18.995,42.5,42.343,42.671c4.121,0.03,7.445,3.379,7.445,7.5   v82.115h48.682v-32.327C280.288,269.77,305.987,244.071,337.576,244.071z" fill="#4c4c4c"/><path d="M337.576,259.071c-23.318,0-42.288,18.97-42.288,42.288V390h34.788V281.571   c0-4.142,3.358-7.5,7.5-7.5c0,0,0.002,0,0.002,0v-15H337.576z" fill="#0c80e4"/><rect x="295px" y="435px" width="34px" height="15px" fill="#fecc33"/><rect x="295px" y="405px" width="34px" height="15px" fill="#ff9926"/><path d="M206.185,144.3V27.598c-4.107,5.397-8.817,12.22-13.502,20.354   c-11.117,19.304-24.24,49.972-25.767,88.848h16.769c4.142,0,7.5,3.358,7.5,7.5v0L206.185,144.3L206.185,144.3z" fill="#fecc33"/><path d="M330.076,281.571V390h-34.788v-88.641c0-23.318,18.97-42.288,42.288-42.288h0.002h35.891   c13.297,0,22.267-5.034,29.082-16.322c5.798-9.602,10.021-23.862,15.868-43.597l0.016-0.053h0.191c4.142,0,7.5-3.358,7.5-7.5   s-3.358-7.5-7.5-7.5h-5.846c-0.021,0-0.042,0-0.063,0h-92.509c-16.426,0-19.51-4.588-26.962-15.673   c-2.094-3.115-4.468-6.646-7.424-10.437c-8.684-11.135-19.69-17.572-34.636-20.026V7.5c0-4.142-3.358-7.5-7.5-7.5   s-7.5,3.358-7.5,7.5v129.307c-0.135,0-0.263-0.007-0.399-0.007h-14.601V7.5c0-2.989-1.774-5.692-4.516-6.881   c-2.741-1.188-5.928-0.637-8.109,1.406c-0.589,0.551-14.574,13.771-28.573,37.918c-12.188,21.024-26.583,54.534-28.084,97.088   C88.935,140.85,38.875,193.28,38.875,257.191V457.5c0,4.142,3.358,7.5,7.5,7.5h177.731c4.142,0,7.5-3.358,7.5-7.5V348.686h48.682   V457.5c0,4.142,3.358,7.5,7.5,7.5h49.788c4.142,0,7.5-3.358,7.5-7.5V281.571c0-4.141-3.357-7.499-7.498-7.5   c-0.001,0-0.002,0-0.002,0C333.434,274.071,330.076,277.429,330.076,281.571z M216.605,420H106.375c-4.142,0-7.5,3.358-7.5,7.5   s3.358,7.5,7.5,7.5h110.231v15H53.875v-15h22.5c4.142,0,7.5-3.358,7.5-7.5s-3.358-7.5-7.5-7.5h-22.5v-15h162.731V420z M216.605,390   H53.875V257.191c0-58.113,47.278-105.391,105.391-105.391h7.552v49.6c0,29.044,21.735,53.266,49.788,57.134V390z M280.288,301.359   v32.327h-48.682v-82.115c0-4.121-3.324-7.47-7.445-7.5c-23.348-0.171-42.343-19.313-42.343-42.671v-2.3h68.262l8.264,11.402   c1.467,2.024,3.756,3.1,6.079,3.1c1.525,0,3.065-0.464,4.395-1.428c3.354-2.431,4.103-7.12,1.672-10.474l-10.509-14.501   c-1.411-1.947-3.669-3.099-6.073-3.099h-72.089V151.8h1.867c4.142,0,7.5-3.358,7.5-7.5v0v0c0-4.142-3.358-7.5-7.5-7.5h-16.769   c1.527-38.875,14.65-69.544,25.767-88.848c4.685-8.134,9.395-14.957,13.502-20.354V144.3v0v0c0,4.142,3.358,7.5,7.5,7.5h22.101   c18.599,0,29.668,4.466,38.207,15.415c2.63,3.373,4.752,6.529,6.804,9.581c8.045,11.968,14.994,22.304,39.411,22.304h82.579   c-10.794,36.239-14.465,44.972-29.318,44.972h-35.894C305.987,244.071,280.288,269.77,280.288,301.359z M330.076,450h-34.788v-15   h34.788V450z M330.076,420h-34.788v-15h34.788V420z"/><path d="M390.782,301.798c-3.366-2.413-8.051-1.642-10.465,1.725c-2.414,3.366-1.641,8.052,1.725,10.465   c7.42,5.32,13.621,11.982,18.365,19.521c-14.33,4.715-24.707,18.217-24.707,34.104V457.5c0,4.142,3.358,7.5,7.5,7.5   s7.5-3.358,7.5-7.5v-89.887c0-9.967,7.018-18.313,16.368-20.391c2.646,7.402,4.058,15.277,4.058,23.311c0,4.142,3.358,7.5,7.5,7.5   s7.5-3.358,7.5-7.5C426.125,343.361,412.913,317.666,390.782,301.798z"/></g><g transform="matrix(0.14540819416583994 -0.0389620081996047 0.0389620081996047 0.14540819416583994 132.13392921663282 150.251263029449)" id="L1_173"><path d="M174.49,68.041c-7.476-11.533-15.075-21.686-22.697-30.334   c-2.985,31.315,0.769,70.807,10.897,113.205c0.957,4.006-1.497,8.027-5.486,9.018c2.178,8.573,4.607,17.256,7.308,26.02   c1.759,1.246,3.513,2.505,5.264,3.777c7.568,5.499,14.987,11.182,22.187,16.987c-0.492-9.464-0.75-19.028-0.75-28.626   c0-29.472,2.375-58.23,6.782-84.639c-4.293-8.137-8.706-15.872-13.203-23.153C181.326,72.491,176.728,71.494,174.49,68.041z" fill="#ffdbf9"/><path d="M273.038,206.714c7.2-5.805,14.618-11.488,22.187-16.987c1.75-1.272,3.505-2.531,5.264-3.777   c2.701-8.763,5.13-17.446,7.308-26.019c-3.989-0.991-6.443-5.012-5.486-9.018c10.128-42.398,13.882-81.89,10.897-113.205   c-7.622,8.648-15.221,18.801-22.697,30.334c-2.239,3.454-6.835,4.45-10.303,2.254c-4.497,7.281-8.91,15.016-13.203,23.153   c4.407,26.409,6.782,55.167,6.782,84.639C273.787,187.686,273.53,197.25,273.038,206.714z" fill="#ffdbf9"/><path d="M304.041,201.862c-11.256,8.178-22.166,16.771-32.485,25.567   c-1.412,15.475-3.485,30.508-6.185,44.774h26.678l141.614-136.75C394.71,146.142,348.083,169.863,304.041,201.862z" fill="#fe4ce1"/><path d="M250.104,272.202c5.687-28.905,8.683-61.296,8.683-94.114c0-59.142-9.695-115.004-26.287-153.373   c-16.592,38.369-26.287,94.231-26.287,153.373c0,32.818,2.996,65.21,8.683,94.114H250.104z" fill="#fe4ce1"/><path d="M172.952,272.202h26.678c-2.701-14.265-4.773-29.299-6.185-44.774   c-10.319-8.795-21.229-17.388-32.485-25.567c-44.042-31.999-90.669-55.719-129.622-66.41L172.952,272.202z" fill="#fe4ce1"/><path d="M374.655,111.41c4.976-12.903,8.75-25.086,11.279-36.396c-20.002,11.816-41.565,29.315-63.159,51.31   c-1.646,9.194-3.604,18.569-5.874,28.074c-0.823,3.443-3.897,5.759-7.289,5.759c-0.577,0-1.163-0.067-1.749-0.207   c-0.023-0.005-0.044-0.014-0.066-0.019c-2.178,8.573-4.607,17.256-7.308,26.019c22.261-15.777,45.132-29.486,67.39-40.583   c4.068-8.26,7.732-16.376,10.986-24.3C375.061,119.544,373.176,115.244,374.655,111.41z" fill="#fe70e7"/><path d="M157.204,159.93c-0.023,0.006-0.044,0.014-0.066,0.019c-0.586,0.14-1.172,0.207-1.749,0.207   c-3.391,0-6.466-2.316-7.289-5.759c-2.27-9.504-4.228-18.88-5.874-28.074c-21.594-21.995-43.157-39.494-63.159-51.31   c2.53,11.311,6.304,23.494,11.279,36.396c1.479,3.834-0.406,8.134-4.21,9.657c3.255,7.924,6.919,16.04,10.987,24.3   c22.258,11.097,45.129,24.806,67.39,40.583C161.811,177.186,159.383,168.503,157.204,159.93z" fill="#fe70e7"/><path d="M256.145,287.202h-47.339c-0.012,0-0.025,0.002-0.037,0.002c-0.008,0-0.015-0.002-0.023-0.002   H177.93c0.721,5.274,2.202,10.308,4.311,15h16.535c4.142,0,7.5,3.358,7.5,7.5s-3.358,7.5-7.5,7.5h-6.568   c10.063,10.804,24.398,17.578,40.292,17.578s30.229-6.774,40.292-17.578h-44.016c-4.142,0-7.5-3.358-7.5-7.5s3.358-7.5,7.5-7.5   h53.983c2.109-4.692,3.59-9.726,4.311-15h-30.862C256.187,287.202,256.166,287.202,256.145,287.202z" fill="#4fc153"/><path d="M90.346,111.41c-4.976-12.903-8.75-25.086-11.279-36.396c20.002,11.816,41.565,29.315,63.159,51.31   c1.646,9.194,3.604,18.569,5.874,28.074c0.823,3.443,3.897,5.759,7.289,5.759c0.577,0,1.163-0.067,1.749-0.207   c0.023-0.005,0.044-0.014,0.066-0.019c3.989-0.991,6.443-5.012,5.486-9.018c-10.128-42.398-13.882-81.89-10.897-113.205   c7.622,8.648,15.221,18.801,22.697,30.334c2.239,3.453,6.836,4.45,10.303,2.254c0.023-0.015,0.047-0.026,0.07-0.041   c3.476-2.253,4.467-6.897,2.214-10.373c-11.541-17.804-23.461-32.599-35.428-43.972c-1.994-1.896-4.866-2.548-7.484-1.696   c-2.617,0.85-4.559,3.065-5.058,5.771c-4.209,22.802-4.346,50.87-0.58,81.804c-22.888-21.276-45.562-37.53-66.34-47.46   c-2.483-1.188-5.417-0.918-7.642,0.7c-2.227,1.617-3.388,4.324-3.027,7.052c2.175,16.429,7.166,34.842,14.834,54.726   c1.49,3.865,5.832,5.79,9.696,4.299c0.031-0.012,0.058-0.027,0.089-0.039C89.94,119.544,91.825,115.244,90.346,111.41z"/><path d="M290.511,68.041c7.476-11.533,15.075-21.686,22.697-30.334c2.985,31.315-0.769,70.807-10.897,113.205   c-0.957,4.006,1.497,8.027,5.486,9.018c0.023,0.006,0.044,0.014,0.066,0.019c0.586,0.14,1.172,0.207,1.749,0.207   c3.391,0,6.466-2.316,7.289-5.759c2.27-9.504,4.228-18.88,5.874-28.074c21.594-21.995,43.157-39.494,63.159-51.31   c-2.53,11.311-6.304,23.494-11.279,36.396c-1.479,3.834,0.407,8.134,4.21,9.657c0.03,0.012,0.058,0.028,0.089,0.039   c3.865,1.49,8.206-0.435,9.696-4.299c7.668-19.884,12.659-38.297,14.834-54.726c0.361-2.728-0.8-5.435-3.027-7.052   c-2.226-1.617-5.158-1.886-7.642-0.7c-20.778,9.93-43.453,26.184-66.34,47.46c3.765-30.934,3.629-59.002-0.58-81.804   c-0.5-2.706-2.441-4.921-5.058-5.771c-2.616-0.852-5.49-0.199-7.484,1.696c-11.967,11.373-23.887,26.167-35.428,43.972   c-2.253,3.476-1.262,8.12,2.214,10.373c0.023,0.015,0.047,0.026,0.07,0.041C283.676,72.491,288.272,71.495,290.511,68.041z"/><path d="M462.71,128.255c2.329-2.249,2.952-5.74,1.544-8.656c-1.408-2.916-4.527-4.6-7.738-4.174   c-25.832,3.42-56.599,13.969-88.638,29.942c-22.258,11.097-45.129,24.806-67.39,40.583c-1.759,1.246-3.514,2.505-5.264,3.777   c-7.568,5.499-14.987,11.182-22.187,16.987c0.492-9.464,0.75-19.028,0.75-28.626c0-29.472-2.375-58.23-6.782-84.639   c-5.907-35.397-15.47-66.568-27.911-89.522C237.783,1.507,235.252,0,232.5,0s-5.283,1.507-6.594,3.926   c-12.442,22.954-22.004,54.125-27.911,89.522c-4.407,26.409-6.782,55.167-6.782,84.639c0,9.598,0.257,19.162,0.75,28.626   c-7.2-5.805-14.618-11.488-22.187-16.987c-1.75-1.272-3.505-2.531-5.264-3.777c-22.261-15.777-45.132-29.486-67.39-40.583   c-32.039-15.973-62.806-26.522-88.638-29.942c-3.21-0.426-6.33,1.258-7.738,4.174c-1.408,2.916-0.785,6.407,1.544,8.656   l160.214,154.711c0.323,7.016,1.689,13.762,3.936,20.097c-2.388,1.255-4.018,3.755-4.018,6.64c0,4.142,3.358,7.5,7.5,7.5h3.423   c11.176,17.567,29.942,29.85,51.655,32.172V457.5c0,4.142,3.358,7.5,7.5,7.5s7.5-3.358,7.5-7.5V349.374   c21.713-2.321,40.479-14.604,51.655-32.172h3.423c4.142,0,7.5-3.358,7.5-7.5c0-2.885-1.631-5.385-4.018-6.64   c2.247-6.334,3.612-13.08,3.936-20.097L462.71,128.255z M282.759,302.202h-53.983c-4.142,0-7.5,3.358-7.5,7.5s3.358,7.5,7.5,7.5   h44.016c-10.063,10.804-24.398,17.578-40.292,17.578s-30.229-6.774-40.292-17.578h6.568c4.142,0,7.5-3.358,7.5-7.5   s-3.358-7.5-7.5-7.5h-16.535c-2.109-4.692-3.59-9.726-4.311-15h30.816c0.008,0,0.015,0.002,0.023,0.002   c0.012,0,0.025-0.002,0.037-0.002h47.339c0.021,0,0.042,0,0.063,0h30.862C286.349,292.476,284.868,297.51,282.759,302.202z    M232.5,24.715c16.592,38.369,26.287,94.231,26.287,153.373c0,32.819-2.996,65.209-8.683,94.114h-35.208   c-5.687-28.905-8.683-61.296-8.683-94.114C206.213,118.946,215.908,63.084,232.5,24.715z M193.445,227.428   c1.412,15.475,3.485,30.509,6.185,44.774h-26.678L31.338,135.452c38.953,10.69,85.58,34.411,129.622,66.41   C172.216,210.04,183.126,218.633,193.445,227.428z M265.37,272.202c2.701-14.265,4.773-29.299,6.185-44.774   c10.319-8.795,21.229-17.389,32.485-25.567c44.042-31.999,90.669-55.719,129.622-66.41l-141.614,136.75H265.37z"/></g><g transform="matrix(0.19354838132858276 0 0 0.19354838132858276 217.5 217.5)" id="L1_174"><path d="M421.133,49.309h-14.396c-2.939,0-5.608-1.717-6.826-4.393c-2.978-6.541-9.537-10.767-16.713-10.767   h-18.356v143.303c0,18.133-14.196,32.775-32.319,33.333c-2.864,0.098-5.539-1.471-6.873-4.014   c-14.826-28.279-42.391-48.287-73.736-53.519c-3.615-0.604-6.265-3.732-6.265-7.397c0-9.999-2.379-19.449-6.581-27.833   c-12.747,16.899-32.978,27.834-55.777,27.834c-22.8,0-43.031-10.935-55.778-27.834c-4.201,8.385-6.581,17.834-6.581,27.834   c0,3.666-2.649,6.794-6.266,7.397c-49.478,8.259-85.389,50.721-85.389,100.966c0,9.095,7.398,16.494,16.493,16.494h19.314   c4.143,0,7.5,3.358,7.5,7.5v68.412c18.65-3.524,32.801-19.941,32.801-39.601v-28.811c0-4.142,3.357-7.5,7.5-7.5h166.135   c4.143,0,7.5,3.358,7.5,7.5v68.412c18.65-3.524,32.801-19.941,32.801-39.601v-28.811c0-4.142,3.357-7.5,7.5-7.5h30.323   c24.488,0,44.411-19.922,44.411-44.411V85.99c0-4.142,3.357-7.5,7.5-7.5h12.077c8.045,0,14.59-6.545,14.59-14.591   C435.723,55.854,429.178,49.309,421.133,49.309z M98.523,207.348c-4.411,0-8-3.589-8-8s3.589-8,8-8s8,3.589,8,8   S102.935,207.348,98.523,207.348z M127.247,236.072c-4.411,0-8-3.589-8-8s3.589-8,8-8s8,3.589,8,8S131.658,236.072,127.247,236.072   z" fill="#ff9926"/><path d="M183.291,145.855c22.799,0,43.03-10.935,55.777-27.834c-10.245-20.447-31.393-34.524-55.778-34.524   c-24.385,0-45.532,14.077-55.778,34.524C140.26,134.92,160.491,145.855,183.291,145.855z" fill="#fecc33"/><path d="M127.247,220.072c-4.411,0-8,3.589-8,8s3.589,8,8,8s8-3.589,8-8S131.658,220.072,127.247,220.072z"/><path d="M98.523,191.348c-4.411,0-8,3.589-8,8s3.589,8,8,8s8-3.589,8-8S102.935,191.348,98.523,191.348z"/><path d="M421.133,34.309h-9.984c-6.095-9.344-16.598-15.16-27.95-15.16h-18.356V7.5c0-4.142-3.357-7.5-7.5-7.5s-7.5,3.358-7.5,7.5   v169.952c0,8.489-5.654,15.587-13.482,17.705c-16.462-28.18-44.24-48.474-75.959-55.529c-3.182-39.755-36.551-71.131-77.11-71.131   s-73.929,31.374-77.11,71.129c-24.718,5.484-47.185,18.955-63.779,38.364c-18.136,21.212-28.123,48.283-28.123,76.228v100.605   c0,4.142,3.357,7.5,7.5,7.5s7.5-3.358,7.5-7.5v-73.79c4.8,2.964,10.449,4.678,16.493,4.678h11.814V457.5c0,4.142,3.357,7.5,7.5,7.5   s7.5-3.358,7.5-7.5v-95.7c26.957-3.673,47.801-26.83,47.801-54.778v-21.311h151.135V457.5c0,4.142,3.357,7.5,7.5,7.5   s7.5-3.358,7.5-7.5v-95.7c26.957-3.673,47.801-26.83,47.801-54.778v-21.311h22.823c32.76,0,59.411-26.651,59.411-59.411V93.49   h4.577c16.315,0,29.59-13.274,29.59-29.591C450.723,47.583,437.448,34.309,421.133,34.309z M421.133,78.49h-12.077   c-4.143,0-7.5,3.358-7.5,7.5v140.311c0,24.488-19.923,44.411-44.411,44.411h-30.323c-4.143,0-7.5,3.358-7.5,7.5v28.811   c0,19.66-14.15,36.077-32.801,39.601v-68.412c0-4.142-3.357-7.5-7.5-7.5H112.886c-4.143,0-7.5,3.358-7.5,7.5v28.811   c0,19.66-14.15,36.077-32.801,39.601v-68.412c0-4.142-3.357-7.5-7.5-7.5H45.771c-9.095,0-16.493-7.399-16.493-16.494   c0-50.245,35.911-92.707,85.389-100.966c3.616-0.604,6.266-3.732,6.266-7.397c0-10,2.379-19.449,6.581-27.834   c10.245-20.447,31.393-34.524,55.778-34.524c24.385,0,45.532,14.077,55.778,34.524c4.201,8.385,6.581,17.834,6.581,27.833   c0,3.666,2.649,6.794,6.265,7.397c31.346,5.232,58.91,25.24,73.736,53.519c1.334,2.543,4.009,4.112,6.873,4.014   c18.123-0.558,32.319-15.2,32.319-33.333V34.149h18.356c7.176,0,13.735,4.227,16.713,10.767c1.218,2.676,3.887,4.393,6.826,4.393   h14.396c8.045,0,14.59,6.545,14.59,14.59C435.723,71.945,429.178,78.49,421.133,78.49z"/></g><g transform="matrix(0.04301075264811516 0 0 0.04301075264811516 77.5 340)" id="L1_175"><path d="M195,401.385v-15.331c-38.698-8.249-73.938-29.298-99.778-59.75   C67.672,293.836,52.5,252.532,52.5,210c0-99.252,80.748-180,180-180s180,80.748,180,180c0,42.532-15.172,83.836-42.722,116.304   c-25.842,30.454-61.077,51.503-99.778,59.751v15.33C360.383,383.727,427.5,302.962,427.5,210c0-107.523-87.477-195-195-195   s-195,87.477-195,195C37.5,302.962,104.617,383.727,195,401.385z" fill="#ff9926"/><path d="M37.5,427.5c0,4.136,3.364,7.5,7.5,7.5h150v-15H45C40.864,420,37.5,423.364,37.5,427.5z" fill="#ff9926"/><path d="M420,420H270v15h150c4.136,0,7.5-3.364,7.5-7.5S424.136,420,420,420z" fill="#ff9926"/><path d="M254.964,380.102c-0.363-3.8-3.571-6.781-7.464-6.781c-4.136,0-7.5,3.364-7.5,7.5   c0,4.143-3.357,7.5-7.5,7.5s-7.5-3.357-7.5-7.5c0-4.136-3.364-7.5-7.5-7.5c-3.894,0-7.102,2.983-7.464,6.784   c-0.002,0.078,0.001,0.155-0.003,0.234L210,380.855V442.5c0,4.136,3.364,7.5,7.5,7.5s7.5-3.364,7.5-7.5v-31.679   c0-4.143,3.357-7.5,7.5-7.5s7.5,3.357,7.5,7.5V442.5c0,4.136,3.364,7.5,7.5,7.5s7.5-3.364,7.5-7.5v-61.679l-0.032-0.458   C254.962,380.276,254.966,380.189,254.964,380.102z" fill="#fecc33"/><path d="M420,405H310.482c30.746-12.314,58.436-31.854,80.53-57.256C424.215,309.571,442.5,260.652,442.5,210   c0-115.794-94.206-210-210-210s-210,94.206-210,210c0,50.652,18.285,99.571,51.487,137.744   c22.094,25.402,49.784,44.942,80.53,57.256H45c-12.406,0-22.5,10.094-22.5,22.5S32.594,450,45,450h151.29   c3.096,8.729,11.433,15,21.21,15c5.757,0,11.017-2.174,15-5.743c3.983,3.569,9.243,5.743,15,5.743c9.777,0,18.114-6.271,21.21-15   H420c12.406,0,22.5-10.094,22.5-22.5S432.406,405,420,405z M420,435H270v-15h150c4.136,0,7.5,3.364,7.5,7.5S424.136,435,420,435z    M255,442.5c0,4.136-3.364,7.5-7.5,7.5s-7.5-3.364-7.5-7.5v-31.679c0-4.143-3.357-7.5-7.5-7.5s-7.5,3.357-7.5,7.5V442.5   c0,4.136-3.364,7.5-7.5,7.5s-7.5-3.364-7.5-7.5v-61.645l0.033-0.516c0.005-0.079,0.001-0.156,0.003-0.234   c0.362-3.801,3.57-6.784,7.464-6.784c4.136,0,7.5,3.364,7.5,7.5c0,4.143,3.357,7.5,7.5,7.5s7.5-3.357,7.5-7.5   c0-4.136,3.364-7.5,7.5-7.5c3.893,0,7.1,2.981,7.464,6.781c0.002,0.087-0.001,0.173,0.004,0.261l0.032,0.458V442.5z M195,435H45   c-4.136,0-7.5-3.364-7.5-7.5s3.364-7.5,7.5-7.5h150V435z M232.5,15c107.523,0,195,87.477,195,195   c0,92.962-67.117,173.727-157.5,191.385v-15.33c38.701-8.248,73.937-29.297,99.778-59.751C397.328,293.836,412.5,252.532,412.5,210   c0-99.252-80.748-180-180-180s-180,80.748-180,180c0,42.532,15.172,83.836,42.722,116.304c25.84,30.453,61.08,51.502,99.778,59.75   v15.331C104.617,383.727,37.5,302.962,37.5,210C37.5,102.477,124.977,15,232.5,15z M232.5,364.064   c-3.983-3.569-9.243-5.743-15-5.743c-8.959,0-16.711,5.266-20.327,12.863C121.635,354.719,67.5,287.993,67.5,210   c0-90.981,74.019-165,165-165s165,74.019,165,165c0,77.993-54.135,144.719-129.673,161.185   c-3.617-7.598-11.368-12.863-20.327-12.863C241.743,358.321,236.483,360.495,232.5,364.064z"/></g><g transform="matrix(0.08602742850780487 0 0 0.08602742850780487 67.5 67.5)" id="L1_176"><path d="M434.171,68.49c-10.208-10.208-23.78-15.829-38.216-15.829c-14.436,0-28.008,5.622-38.215,15.829   L97.048,329.182c10.118,3.248,20.091,6.941,29.894,11.047l23.825-23.797c-2.066-2.07-2.811-5.254-1.638-8.132   c1.564-3.835,5.942-5.678,9.776-4.114c0.973,0.396,1.935,0.813,2.904,1.218l23.187-23.159c-2.082-2.07-2.836-5.264-1.659-8.152   c1.564-3.837,5.943-5.68,9.776-4.114c0.981,0.4,1.959,0.814,2.939,1.223l24.437-24.407c-2.02-2.073-2.74-5.22-1.577-8.071   c1.565-3.834,5.941-5.675,9.778-4.109c0.942,0.385,1.878,0.784,2.816,1.176l23.82-23.791c-2.035-2.072-2.763-5.232-1.596-8.092   c1.565-3.835,5.944-5.675,9.778-4.109c0.952,0.388,1.898,0.789,2.847,1.185l23.807-23.778c-2.052-2.072-2.789-5.245-1.617-8.116   c1.565-3.835,5.943-5.675,9.778-4.11c0.96,0.392,1.91,0.811,2.867,1.211l23.73-23.701c-2.075-2.079-2.817-5.279-1.625-8.164   c1.581-3.828,5.964-5.65,9.795-4.068c19.963,8.247,39.56,18.431,58.278,30.284c15.947,1.355,31.463-4.282,42.8-15.619   C444.379,134.714,450,121.142,450,106.706S444.379,78.698,434.171,68.49z" fill="#e43017"/><path d="M231.969,288.503c3.63,1.996,4.954,6.556,2.958,10.186c-1.365,2.483-3.932,3.888-6.579,3.888   c-1.222,0-2.461-0.299-3.607-0.93c-12.026-6.613-24.572-12.595-37.289-17.779c-0.948-0.386-1.772-0.945-2.455-1.625l-23.187,23.159   c35.557,14.845,68.439,34.999,97.891,60.032l17.435-28.624c-8.544-6.894-17.444-13.43-26.527-19.478   c-3.448-2.296-4.382-6.952-2.086-10.399s6.953-4.382,10.399-2.086c8.914,5.936,17.658,12.321,26.083,19.044l18.17-29.833   c-24.663-18.593-51.595-33.904-80.151-45.56c-0.985-0.402-1.835-0.991-2.533-1.707l-24.437,24.407   C208.297,276.315,220.367,282.122,231.969,288.503z" fill="#ff9926"/><path d="M233.754,408.036l18.043-29.623c-29.496-25.406-62.624-45.691-98.552-60.337   c-0.957-0.39-1.79-0.956-2.477-1.644l-23.825,23.797C165.967,356.571,202.246,379.552,233.754,408.036z" fill="#ff9926"/><path d="M361.567,198.193l17.021-27.945c-16.54-10.131-33.739-18.907-51.222-26.129   c-0.944-0.39-1.764-0.951-2.443-1.631l-23.73,23.701C322.218,174.978,342.487,185.705,361.567,198.193z" fill="#ff9926"/><path d="M311.015,281.189l17.551-28.815c-22.038-15.516-45.796-28.516-70.723-38.69   c-0.976-0.398-1.82-0.98-2.514-1.686l-23.82,23.791C259.759,247.591,286.459,262.831,311.015,281.189z" fill="#ff9926"/><path d="M336.385,239.536l17.375-28.525c-19.264-12.646-39.786-23.445-61.102-32.145   c-0.965-0.394-1.803-0.966-2.492-1.662l-23.807,23.778C290.986,211.274,314.497,224.213,336.385,239.536z" fill="#ff9926"/><path d="M444.777,57.884c-26.921-26.921-70.724-26.921-97.644,0L77.679,327.338c-0.068,0.066-0.135,0.133-0.201,0.202L2.197,402.82   c-2.929,2.929-2.929,7.678,0,10.606c2.929,2.929,7.678,2.929,10.606,0l72.252-72.251c54.018,16.038,104.127,45.033,145.163,84.035   c1.403,1.333,3.256,2.064,5.167,2.064c0.328,0,0.657-0.021,0.986-0.065c2.248-0.298,4.24-1.597,5.419-3.534l26.027-42.731   c0.051-0.08,0.1-0.161,0.148-0.242l25.298-41.535c0.051-0.081,0.101-0.162,0.149-0.245l26.007-42.699   c0.049-0.077,0.095-0.153,0.141-0.231l25.393-41.69c0.029-0.046,0.057-0.092,0.084-0.138l25.198-41.37   c0.049-0.077,0.097-0.155,0.143-0.234l22.472-36.894c19.385,0.886,38.091-6.304,51.927-20.14   C471.698,128.607,471.698,84.804,444.777,57.884z M434.171,144.921c-11.337,11.337-26.853,16.974-42.8,15.619   c-18.718-11.853-38.315-22.037-58.278-30.284c-3.831-1.582-8.214,0.24-9.795,4.068c-1.192,2.885-0.45,6.084,1.625,8.164   c0.679,0.68,1.499,1.242,2.443,1.631c17.482,7.223,34.682,15.999,51.222,26.129l-17.021,27.945   c-19.08-12.489-39.349-23.216-60.374-32.004c-0.957-0.4-1.907-0.819-2.867-1.211c-3.834-1.565-8.213,0.274-9.778,4.11   c-1.172,2.87-0.435,6.044,1.617,8.116c0.69,0.696,1.528,1.268,2.492,1.662c21.316,8.7,41.838,19.499,61.102,32.145l-17.375,28.525   c-21.888-15.323-45.399-28.262-70.027-38.554c-0.948-0.396-1.895-0.797-2.847-1.185c-3.834-1.566-8.212,0.274-9.778,4.109   c-1.167,2.86-0.439,6.02,1.596,8.092c0.694,0.707,1.539,1.288,2.514,1.686c24.926,10.174,48.685,23.174,70.723,38.69   l-17.551,28.815c-24.556-18.358-51.256-33.598-79.506-45.4c-0.939-0.392-1.874-0.791-2.816-1.176   c-3.837-1.566-8.213,0.275-9.778,4.109c-1.164,2.851-0.443,5.999,1.577,8.071c0.698,0.716,1.548,1.305,2.533,1.707   c28.556,11.656,55.488,26.967,80.151,45.56l-18.17,29.833c-8.424-6.724-17.168-13.109-26.083-19.044   c-3.447-2.296-8.104-1.362-10.399,2.086s-1.362,8.104,2.086,10.399c9.083,6.048,17.983,12.583,26.527,19.478l-17.435,28.624   c-29.451-25.034-62.334-45.188-97.891-60.032c-0.969-0.405-1.931-0.821-2.904-1.218c-3.834-1.564-8.212,0.279-9.776,4.114   c-1.173,2.879-0.429,6.062,1.638,8.132c0.687,0.688,1.52,1.254,2.477,1.644c35.928,14.646,69.056,34.932,98.552,60.337   l-18.043,29.623c-31.508-28.484-67.786-51.466-106.811-67.808c-9.803-4.105-19.776-7.798-29.894-11.047L357.74,68.49   c10.208-10.208,23.78-15.829,38.215-15.829c14.436,0,28.008,5.622,38.216,15.829S450,92.27,450,106.706   S444.379,134.714,434.171,144.921z"/><path d="M224.742,301.647c1.146,0.63,2.385,0.93,3.607,0.93c2.647,0,5.213-1.404,6.579-3.888c1.996-3.629,0.672-8.19-2.958-10.186   c-11.603-6.381-23.672-12.188-35.915-17.302c-0.979-0.409-1.957-0.823-2.939-1.223c-3.833-1.566-8.212,0.277-9.776,4.114   c-1.177,2.888-0.423,6.082,1.659,8.152c0.683,0.679,1.508,1.238,2.455,1.625C200.17,289.052,212.715,295.033,224.742,301.647z"/></g><g transform="matrix(0.08602150529623032 0 0 0.08602150529623032 155 330)" id="L1_177"><path d="M240,337.496c0,4.143-3.358,7.5-7.5,7.5v15c4.142,0,7.5,3.357,7.5,7.5v56.414l206.23-129.862   L240,48.113V337.496z M383,285.057c4.411,0,8,3.589,8,8s-3.589,8-8,8s-8-3.589-8-8S378.589,285.057,383,285.057z M353,255.057   c4.411,0,8,3.589,8,8s-3.589,8-8,8s-8-3.589-8-8S348.589,255.057,353,255.057z" fill="#ff9926"/><path d="M225,337.496V48.112L18.77,294.048L225,423.91v-56.414c0-4.143,3.358-7.5,7.5-7.5v-15   C228.358,344.996,225,341.639,225,337.496z" fill="#fecc33"/><path d="M463.247,290.995l-225-268.318c-0.073-0.088-0.154-0.165-0.231-0.249c-0.054-0.058-0.106-0.117-0.161-0.173   c-0.239-0.245-0.489-0.473-0.752-0.678c-0.024-0.018-0.049-0.034-0.073-0.052c-0.262-0.199-0.535-0.375-0.816-0.536   c-0.049-0.028-0.096-0.057-0.146-0.084c-0.308-0.167-0.625-0.311-0.95-0.432c-0.019-0.007-0.035-0.018-0.054-0.025   c-0.034-0.012-0.068-0.017-0.102-0.028c-0.31-0.107-0.625-0.197-0.944-0.263c-0.036-0.007-0.071-0.018-0.107-0.025   c-0.328-0.063-0.66-0.098-0.993-0.116c-0.079-0.004-0.158-0.008-0.238-0.01c-0.333-0.008-0.667,0-0.999,0.036   c-0.021,0.002-0.041,0.007-0.062,0.01c-0.322,0.038-0.641,0.101-0.958,0.181c-0.058,0.015-0.116,0.028-0.174,0.044   c-0.327,0.091-0.649,0.201-0.964,0.338c-0.036,0.016-0.07,0.034-0.105,0.05c-0.276,0.125-0.545,0.269-0.808,0.429   c-0.063,0.038-0.126,0.074-0.187,0.114c-0.254,0.165-0.503,0.342-0.741,0.541c-0.022,0.018-0.041,0.039-0.062,0.058   c-0.05,0.043-0.097,0.091-0.146,0.136c-0.226,0.205-0.437,0.42-0.633,0.645c-0.027,0.032-0.06,0.057-0.087,0.089l-225,268.318   c-1.392,1.66-1.998,3.841-1.663,5.981c0.335,2.14,1.58,4.03,3.413,5.185l225,141.682c0.056,0.035,0.116,0.059,0.173,0.092   c0.186,0.11,0.375,0.211,0.569,0.304c0.116,0.056,0.232,0.112,0.35,0.162c0.191,0.08,0.386,0.148,0.583,0.212   c0.123,0.04,0.244,0.084,0.368,0.117c0.213,0.057,0.429,0.098,0.646,0.137c0.108,0.019,0.214,0.046,0.323,0.061   c0.328,0.044,0.66,0.069,0.992,0.069c0.076,0,0.151-0.013,0.227-0.016c0.246-0.008,0.492-0.019,0.736-0.051   c0.143-0.019,0.283-0.054,0.425-0.081c0.182-0.035,0.365-0.066,0.545-0.115c0.144-0.038,0.284-0.091,0.426-0.138   c0.178-0.059,0.356-0.119,0.53-0.192c0.133-0.056,0.263-0.121,0.394-0.186c0.111-0.054,0.225-0.097,0.334-0.157   c0.067-0.037,0.126-0.084,0.192-0.123c0.059-0.035,0.122-0.06,0.181-0.096l225-141.682c1.833-1.154,3.078-3.045,3.413-5.185   C465.245,294.836,464.639,292.655,463.247,290.995z M240,423.91v-56.414c0-4.143-3.358-7.5-7.5-7.5s-7.5,3.357-7.5,7.5v56.414   L18.77,294.048L225,48.112v289.384c0,4.143,3.358,7.5,7.5,7.5s7.5-3.357,7.5-7.5V48.113l206.23,245.935L240,423.91z"/><path d="M383,301.057c4.411,0,8-3.589,8-8s-3.589-8-8-8s-8,3.589-8,8S378.589,301.057,383,301.057z"/><path d="M353,271.057c4.411,0,8-3.589,8-8s-3.589-8-8-8s-8,3.589-8,8S348.589,271.057,353,271.057z"/></g><g transform="matrix(0.10752688348293304 0 0 0.10752688348293304 62.5 237.5)" id="L1_178"><path d="M196.152,270.55l29.315,102.268c0.557,1.941,0.307,4.026-0.694,5.781   c-1.001,1.755-2.667,3.032-4.622,3.542c-1.049,0.273-105.124,27.435-125.591,32.737c-5.171,1.34-8.782,5.979-8.782,11.283   c0,6.414,5.218,11.632,11.632,11.632h197.97l-17.554-187.677h-95.337l4.384,15.291c0.001,0,0.002-0.001,0.003-0.001   C190.858,264.269,195.01,266.568,196.152,270.55z" fill="#ff9926"/><path d="M118.684,324.857c-4.604-2.71-10.438-1.982-14.188,1.769c-2.197,2.196-3.407,5.118-3.407,8.225   c0,3.107,1.21,6.029,3.407,8.226l42.617,42.617c24.368-6.354,49.642-12.948,61.818-16.125l-0.071-0.249   c-6.99-4.123-17.181-10.133-28.167-16.612l-3.815,6.466C176.878,359.171,130.045,331.542,118.684,324.857z" fill="#fecc33"/><path d="M232.5,139.495c-19.397,0-35.179,15.781-35.179,35.179s15.781,35.179,35.179,35.179   s35.179-15.781,35.179-35.179S251.897,139.495,232.5,139.495z" fill="#ff9926"/><path d="M232.5,124.495c26.823,0,48.645-21.822,48.645-48.645S259.323,27.206,232.5,27.206   s-48.645,21.822-48.645,48.645S205.677,124.495,232.5,124.495z" fill="#e43017"/><path d="M456.484,133.275c4.142,0,7.5-3.357,7.5-7.5s-3.358-7.5-7.5-7.5h-21.34V86.538H457.5c4.142,0,7.5-3.357,7.5-7.5   s-3.358-7.5-7.5-7.5h-22.961c-2.945-18.291-16.502-33.307-34.982-37.787c-4.029-0.974-8.08,1.498-9.056,5.522   c-0.976,4.025,1.497,8.08,5.522,9.056c14.202,3.442,24.121,16.07,24.121,30.709v366.256c0,4.143,3.358,7.5,7.5,7.5   s7.5-3.357,7.5-7.5v-31.597h15.248c4.142,0,7.5-3.357,7.5-7.5s-3.358-7.5-7.5-7.5h-15.248v-31.737h16.263   c4.142,0,7.5-3.357,7.5-7.5s-3.358-7.5-7.5-7.5h-16.263v-31.737h17.278c4.142,0,7.5-3.357,7.5-7.5s-3.358-7.5-7.5-7.5h-17.278   v-31.736h18.294c4.142,0,7.5-3.357,7.5-7.5s-3.358-7.5-7.5-7.5h-18.294v-31.737h19.31c4.142,0,7.5-3.357,7.5-7.5   s-3.358-7.5-7.5-7.5h-19.31v-31.737h20.325c4.142,0,7.5-3.357,7.5-7.5s-3.358-7.5-7.5-7.5h-20.325v-31.736H456.484z"/><path d="M74.499,39.273c-0.976-4.025-5.027-6.496-9.056-5.522c-18.48,4.48-32.038,19.496-34.982,37.787H7.5   c-4.142,0-7.5,3.357-7.5,7.5s3.358,7.5,7.5,7.5h22.356v31.737H8.516c-4.142,0-7.5,3.357-7.5,7.5s3.358,7.5,7.5,7.5h21.34v31.736   H9.531c-4.142,0-7.5,3.357-7.5,7.5s3.358,7.5,7.5,7.5h20.325v31.737h-19.31c-4.142,0-7.5,3.357-7.5,7.5s3.358,7.5,7.5,7.5h19.31   v31.737H11.562c-4.142,0-7.5,3.357-7.5,7.5s3.358,7.5,7.5,7.5h18.294v31.736H12.578c-4.142,0-7.5,3.357-7.5,7.5s3.358,7.5,7.5,7.5   h17.278v31.737H13.593c-4.142,0-7.5,3.357-7.5,7.5s3.358,7.5,7.5,7.5h16.263v31.737H14.608c-4.142,0-7.5,3.357-7.5,7.5   s3.358,7.5,7.5,7.5h15.248v31.597c0,4.143,3.358,7.5,7.5,7.5s7.5-3.357,7.5-7.5V79.038c0-14.639,9.919-27.267,24.121-30.709   C73.002,47.353,75.475,43.298,74.499,39.273z"/><path d="M204.557,133.017c-13.401,9.019-22.235,24.324-22.235,41.657c0,27.669,22.51,50.179,50.179,50.179   s50.179-22.51,50.179-50.179c0-17.332-8.835-32.638-22.235-41.657c21.122-10.367,35.701-32.093,35.701-57.166   c0-35.094-28.551-63.645-63.645-63.645s-63.645,28.551-63.645,63.645C168.855,100.924,183.435,122.65,204.557,133.017z    M232.5,27.206c26.823,0,48.645,21.822,48.645,48.645s-21.822,48.645-48.645,48.645s-48.645-21.822-48.645-48.645   S205.677,27.206,232.5,27.206z M232.5,209.852c-19.397,0-35.179-15.781-35.179-35.179s15.781-35.179,35.179-35.179   s35.179,15.781,35.179,35.179S251.897,209.852,232.5,209.852z"/><path d="M397.644,235.117H67.356c-4.142,0-7.5,3.357-7.5,7.5s3.358,7.5,7.5,7.5h115.133h95.337l17.554,187.677H97.41   c-6.414,0-11.632-5.218-11.632-11.632c0-5.304,3.611-9.943,8.782-11.283c20.468-5.303,124.542-32.464,125.591-32.737   c1.955-0.51,3.621-1.787,4.622-3.542c1-1.755,1.25-3.84,0.694-5.781L196.152,270.55c-1.142-3.982-5.293-6.281-9.276-5.144   c-0.001,0-0.002,0.001-0.003,0.001c-3.98,1.143-6.281,5.295-5.14,9.275l27.127,94.635l0.071,0.249   c-12.175,3.177-37.449,9.771-61.818,16.125l-42.617-42.617c-2.197-2.196-3.407-5.118-3.407-8.226c0-3.106,1.21-6.028,3.407-8.225   c3.75-3.751,9.583-4.479,14.188-1.769c11.361,6.686,58.194,34.314,58.194,34.315l3.815-6.466l3.807-6.454   c0,0-46.845-27.636-58.209-34.323c-10.494-6.176-23.817-4.493-32.401,4.089c-5.03,5.03-7.801,11.719-7.801,18.832   c0,7.114,2.771,13.803,7.801,18.833l36.397,36.396c-17.672,4.606-32.909,8.574-39.489,10.28   c-11.787,3.054-20.02,13.665-20.02,25.803c0,14.685,11.947,26.632,26.632,26.632h206.175c0.007,0,0.014,0.001,0.021,0.001   c0.007,0,0.014-0.001,0.021-0.001h28.332c4.142,0,7.5-3.357,7.5-7.5s-3.358-7.5-7.5-7.5h-21.513l-17.554-187.677h104.752   c4.142,0,7.5-3.357,7.5-7.5S401.786,235.117,397.644,235.117z"/></g><g transform="matrix(0.08602150529623032 0 0 0.08602150529623032 242.5 67.5)" id="L1_179"><path d="M198.426,206.256c11.714,22.667,23.811,46.084,24.719,107.43h48.682   c-0.854-57.605-11.604-78.496-22.962-100.553c-12.162-23.621-24.738-48.046-24.738-115.339c0-9.237-0.023-26.031-0.023-26.032   c-0.003-1.991,0.786-3.901,2.193-5.31c1.406-1.409,3.315-2.2,5.307-2.2h18.676v-2.5c0-4.142,3.357-7.5,7.5-7.5c0,0,0,0,0,0l0-8   c0,0,0,0-0.001,0c-3.014,0-5.734-1.804-6.908-4.579C244.021,25.469,228.227,15,210.637,15h-12.869c-4.143,0-7.5-3.358-7.5-7.5h-15   v90.293C175.268,161.445,186.517,183.211,198.426,206.256z M231.604,33.869c4.411,0,8,3.589,8,8s-3.589,8-8,8s-8-3.589-8-8   S227.192,33.869,231.604,33.869z" fill="#4fc153"/><rect x="286px" y="405px" width="34px" height="15px" fill="#ff9926"/><path d="M45.471,420h22.501c4.143,0,7.5,3.358,7.5,7.5h15c0-4.142,3.357-7.5,7.5-7.5h110.23v-15H45.471V420z   " fill="#ff9926"/><rect x="286px" y="435px" width="34px" height="15px" fill="#fecc33"/><path d="M67.972,435H45.471v15h162.731v-15H97.972c-4.143,0-7.5-3.358-7.5-7.5h-15   C75.472,431.642,72.114,435,67.972,435z" fill="#fecc33"/><path d="M160.268,97.793V15.227C96.313,19.104,45.471,72.215,45.471,136.944V390h162.731v-68.814   c0-63.342-11.222-85.055-23.102-108.043C172.892,189.52,160.268,165.092,160.268,97.793z" fill="#0c80e4"/><path d="M286.884,390h34.788v-33.023c0-29.335-7.586-58.251-21.939-83.622   c-1.949-3.446-0.869-7.774,2.378-9.93c-6.487-8.393-16.722-17.611-27.017-28.798c6.764,18.853,11.79,44.173,11.79,86.559   L286.884,390z" fill="#0c80e4"/><path d="M371.438,82.745c-30.44-23.534-70.804-36.494-113.657-36.494v8c4.142,0,7.499,3.358,7.499,7.5v2.609   c37.7,1.09,72.281,10.396,98.041,26.483c30.986,19.35,48.688,47.57,51.188,81.608c0.014,0.185,0.012,0.367,0.013,0.549h5.008   C419.529,138.773,402.45,106.719,371.438,82.745z" fill="#4c4c4c"/><path d="M363.32,90.843c-25.76-16.087-60.341-25.393-98.041-26.483v-2.609c0-4.142-3.357-7.5-7.499-7.5c0,0,0,0-0.001,0   c-4.143,0-7.5,3.358-7.5,7.5v2.5h-18.676c-1.991,0-3.9,0.792-5.307,2.2c-1.407,1.409-2.196,3.319-2.193,5.31   c0,0.001,0.023,16.795,0.023,26.032c0,67.292,12.576,91.718,24.738,115.339c11.358,22.058,22.108,42.948,22.962,100.553h-48.682   c-0.909-61.346-13.005-84.763-24.719-107.43c-11.909-23.044-23.158-44.811-23.158-108.462V7.5c0-4.142-3.357-7.5-7.5-7.5   C92.062,0,30.471,61.433,30.471,136.944V457.5c0,4.142,3.357,7.5,7.5,7.5h177.731c4.143,0,7.5-3.358,7.5-7.5V328.686h48.682   l0.001,128.814c0,4.142,3.357,7.5,7.5,7.5h49.787c4.143,0,7.5-3.358,7.5-7.5V356.977c0-31.918-8.259-63.388-23.883-91.008   c-2.04-3.605-6.617-4.875-10.221-2.835c-0.159,0.09-0.308,0.191-0.458,0.29c-3.248,2.157-4.328,6.484-2.378,9.93   c14.354,25.371,21.939,54.287,21.939,83.622V390h-34.788l0-68.814c0-42.386-5.025-67.706-11.79-86.559   c-3.926-10.941-8.437-19.706-12.892-28.36c-11.867-23.047-23.075-44.815-23.075-108.473c0-5.231-0.008-12.883-0.014-18.542h18.666   c37.827,0,72.487,8.635,97.596,24.314c26.763,16.712,42.038,40.913,44.175,69.985c0.303,4.131,3.907,7.24,8.029,6.93   c3.946-0.29,6.946-3.585,6.942-7.481c0-0.182,0.001-0.364-0.013-0.549C412.008,138.413,394.307,110.193,363.32,90.843z    M208.202,420H97.972c-4.143,0-7.5,3.358-7.5,7.5s3.357,7.5,7.5,7.5h110.23v15H45.471v-15h22.501c4.143,0,7.5-3.358,7.5-7.5   s-3.357-7.5-7.5-7.5H45.471v-15h162.731V420z M208.202,390H45.471V136.944c0-64.729,50.842-117.84,114.797-121.717v82.567   c0,67.298,12.624,91.726,24.833,115.349c11.88,22.988,23.102,44.701,23.102,108.043V390z M321.672,450h-34.787v-15h34.787V450z    M321.672,405v15h-34.787l0-15H321.672z"/><path d="M231.604,49.869c4.411,0,8-3.589,8-8s-3.589-8-8-8s-8,3.589-8,8S227.192,49.869,231.604,49.869z"/><path d="M380.611,70.878c-31.913-24.672-73.683-38.643-118.069-39.577C252.45,12.132,232.586,0,210.637,0h-12.869   c-4.143,0-7.5,3.358-7.5,7.5s3.357,7.5,7.5,7.5h12.869c17.59,0,33.384,10.469,40.234,26.672c1.174,2.775,3.895,4.579,6.908,4.579   c0,0,0,0,0,0c42.854,0,83.218,12.961,113.658,36.494c31.012,23.974,48.091,56.028,48.092,90.255v0.001c0,4.142,3.357,7.5,7.5,7.5   s7.5-3.358,7.5-7.5C434.529,134.025,415.381,97.757,380.611,70.878z"/><path d="M382.379,301.798c-3.364-2.412-8.052-1.642-10.465,1.725c-2.414,3.366-1.642,8.052,1.725,10.465   c7.42,5.32,13.621,11.982,18.365,19.521c-14.329,4.715-24.707,18.217-24.707,34.104V457.5c0,4.142,3.357,7.5,7.5,7.5   s7.5-3.358,7.5-7.5v-89.887c0-9.966,7.017-18.313,16.367-20.391c2.646,7.402,4.058,15.277,4.058,23.31c0,4.142,3.357,7.5,7.5,7.5   s7.5-3.358,7.5-7.5C417.722,343.361,404.51,317.666,382.379,301.798z"/></g></defs><g fi:class="KUsePattern"><pattern id="pattern_L1_170" width="350" height="350" patternUnits="userSpaceOnUse"><use xlink:href="#L1_170" x="-350" y="-350"/><use xlink:href="#L1_170" x="0" y="-350"/><use xlink:href="#L1_170" x="350" y="-350"/><use xlink:href="#L1_170" x="-350" y="0"/><use xlink:href="#L1_170" x="0" y="0"/><use xlink:href="#L1_170" x="350" y="0"/><use xlink:href="#L1_170" x="-350" y="350"/><use xlink:href="#L1_170" x="0" y="350"/><use xlink:href="#L1_170" x="350" y="350"/></pattern><rect x="0" y="0" width="100%" height="100%" fill="url(#pattern_L1_170)"/></g><g fi:class="KUsePattern"><pattern id="pattern_L1_171" width="350" height="350" patternUnits="userSpaceOnUse"><use xlink:href="#L1_171" x="-350" y="-350"/><use xlink:href="#L1_171" x="0" y="-350"/><use xlink:href="#L1_171" x="350" y="-350"/><use xlink:href="#L1_171" x="-350" y="0"/><use xlink:href="#L1_171" x="0" y="0"/><use xlink:href="#L1_171" x="350" y="0"/><use xlink:href="#L1_171" x="-350" y="350"/><use xlink:href="#L1_171" x="0" y="350"/><use xlink:href="#L1_171" x="350" y="350"/></pattern><rect x="0" y="0" width="100%" height="100%" fill="url(#pattern_L1_171)"/></g><g fi:class="KUsePattern"><pattern id="pattern_L1_172" width="350" height="350" patternUnits="userSpaceOnUse"><use xlink:href="#L1_172" x="-350" y="-350"/><use xlink:href="#L1_172" x="0" y="-350"/><use xlink:href="#L1_172" x="350" y="-350"/><use xlink:href="#L1_172" x="-350" y="0"/><use xlink:href="#L1_172" x="0" y="0"/><use xlink:href="#L1_172" x="350" y="0"/><use xlink:href="#L1_172" x="-350" y="350"/><use xlink:href="#L1_172" x="0" y="350"/><use xlink:href="#L1_172" x="350" y="350"/></pattern><rect x="0" y="0" width="100%" height="100%" fill="url(#pattern_L1_172)"/></g><g fi:class="KUsePattern"><pattern id="pattern_L1_173" width="350" height="350" patternUnits="userSpaceOnUse"><use xlink:href="#L1_173" x="-350" y="-350"/><use xlink:href="#L1_173" x="0" y="-350"/><use xlink:href="#L1_173" x="350" y="-350"/><use xlink:href="#L1_173" x="-350" y="0"/><use xlink:href="#L1_173" x="0" y="0"/><use xlink:href="#L1_173" x="350" y="0"/><use xlink:href="#L1_173" x="-350" y="350"/><use xlink:href="#L1_173" x="0" y="350"/><use xlink:href="#L1_173" x="350" y="350"/></pattern><rect x="0" y="0" width="100%" height="100%" fill="url(#pattern_L1_173)"/></g><g fi:class="KUsePattern"><pattern id="pattern_L1_174" width="350" height="350" patternUnits="userSpaceOnUse"><use xlink:href="#L1_174" x="-350" y="-350"/><use xlink:href="#L1_174" x="0" y="-350"/><use xlink:href="#L1_174" x="350" y="-350"/><use xlink:href="#L1_174" x="-350" y="0"/><use xlink:href="#L1_174" x="0" y="0"/><use xlink:href="#L1_174" x="350" y="0"/><use xlink:href="#L1_174" x="-350" y="350"/><use xlink:href="#L1_174" x="0" y="350"/><use xlink:href="#L1_174" x="350" y="350"/></pattern><rect x="0" y="0" width="100%" height="100%" fill="url(#pattern_L1_174)"/></g><g fi:class="KUsePattern"><pattern id="pattern_L1_175" width="350" height="350" patternUnits="userSpaceOnUse"><use xlink:href="#L1_175" x="-350" y="-350"/><use xlink:href="#L1_175" x="0" y="-350"/><use xlink:href="#L1_175" x="350" y="-350"/><use xlink:href="#L1_175" x="-350" y="0"/><use xlink:href="#L1_175" x="0" y="0"/><use xlink:href="#L1_175" x="350" y="0"/><use xlink:href="#L1_175" x="-350" y="350"/><use xlink:href="#L1_175" x="0" y="350"/><use xlink:href="#L1_175" x="350" y="350"/></pattern><rect x="0" y="0" width="100%" height="100%" fill="url(#pattern_L1_175)"/></g><g fi:class="KUsePattern"><pattern id="pattern_L1_176" width="350" height="350" patternUnits="userSpaceOnUse"><use xlink:href="#L1_176" x="-350" y="-350"/><use xlink:href="#L1_176" x="0" y="-350"/><use xlink:href="#L1_176" x="350" y="-350"/><use xlink:href="#L1_176" x="-350" y="0"/><use xlink:href="#L1_176" x="0" y="0"/><use xlink:href="#L1_176" x="350" y="0"/><use xlink:href="#L1_176" x="-350" y="350"/><use xlink:href="#L1_176" x="0" y="350"/><use xlink:href="#L1_176" x="350" y="350"/></pattern><rect x="0" y="0" width="100%" height="100%" fill="url(#pattern_L1_176)"/></g><g fi:class="KUsePattern"><pattern id="pattern_L1_177" width="350" height="350" patternUnits="userSpaceOnUse"><use xlink:href="#L1_177" x="-350" y="-350"/><use xlink:href="#L1_177" x="0" y="-350"/><use xlink:href="#L1_177" x="350" y="-350"/><use xlink:href="#L1_177" x="-350" y="0"/><use xlink:href="#L1_177" x="0" y="0"/><use xlink:href="#L1_177" x="350" y="0"/><use xlink:href="#L1_177" x="-350" y="350"/><use xlink:href="#L1_177" x="0" y="350"/><use xlink:href="#L1_177" x="350" y="350"/></pattern><rect x="0" y="0" width="100%" height="100%" fill="url(#pattern_L1_177)"/></g><g fi:class="KUsePattern"><pattern id="pattern_L1_178" width="350" height="350" patternUnits="userSpaceOnUse"><use xlink:href="#L1_178" x="-350" y="-350"/><use xlink:href="#L1_178" x="0" y="-350"/><use xlink:href="#L1_178" x="350" y="-350"/><use xlink:href="#L1_178" x="-350" y="0"/><use xlink:href="#L1_178" x="0" y="0"/><use xlink:href="#L1_178" x="350" y="0"/><use xlink:href="#L1_178" x="-350" y="350"/><use xlink:href="#L1_178" x="0" y="350"/><use xlink:href="#L1_178" x="350" y="350"/></pattern><rect x="0" y="0" width="100%" height="100%" fill="url(#pattern_L1_178)"/></g><g fi:class="KUsePattern"><pattern id="pattern_L1_179" width="350" height="350" patternUnits="userSpaceOnUse"><use xlink:href="#L1_179" x="-350" y="-350"/><use xlink:href="#L1_179" x="0" y="-350"/><use xlink:href="#L1_179" x="350" y="-350"/><use xlink:href="#L1_179" x="-350" y="0"/><use xlink:href="#L1_179" x="0" y="0"/><use xlink:href="#L1_179" x="350" y="0"/><use xlink:href="#L1_179" x="-350" y="350"/><use xlink:href="#L1_179" x="0" y="350"/><use xlink:href="#L1_179" x="350" y="350"/></pattern><rect x="0" y="0" width="100%" height="100%" fill="url(#pattern_L1_179)"/></g></svg>