<svg xmlns="http://www.w3.org/2000/svg" xmlns:xlink="http://www.w3.org/1999/xlink" xmlns:fi="http://pattern.flaticon.com/" x="0" y="0" width="700" height="350" viewBox="0 0 700 350"><rect x="0px" y="0px" width="100%" height="100%" opacity="1" fill="#12191b"/><defs><g transform="matrix(0.04301075264811516 0 0 0.04301075264811516 77.5 340)" id="L1_362"><path d="M282.841,283.166h28.249l0,0c0-4.143,3.357-7.5,7.5-7.5s7.5,3.357,7.5,7.5l0,0h19.728l0,0   c0-4.143,3.357-7.5,7.5-7.5s7.5,3.357,7.5,7.5l0,0h19.728l0,0c0-4.143,3.357-7.5,7.5-7.5s7.5,3.357,7.5,7.5l0,0h19.727l0,0   c0-4.143,3.357-7.5,7.5-7.5s7.5,3.357,7.5,7.5l0,0H450v-41.867H273.271L282.841,283.166z" fill="#fecc33"/><path d="M191.728,241.299H15v41.867h19.727l0,0c0-4.143,3.358-7.5,7.5-7.5s7.5,3.357,7.5,7.5l0,0h19.728l0,0   c0-4.143,3.358-7.5,7.5-7.5c4.142,0,7.5,3.357,7.5,7.5l0,0h19.727l0,0c0-4.143,3.358-7.5,7.5-7.5s7.5,3.357,7.5,7.5l0,0h19.728l0,0   c0-4.143,3.358-7.5,7.5-7.5s7.5,3.357,7.5,7.5l0,0h28.249L191.728,241.299z" fill="#fecc33"/><rect x="84px" y="283px" width="19px" height="41px" fill="#ff9926"/><rect x="49px" y="283px" width="19px" height="41px" fill="#ff9926"/><rect x="15px" y="283px" width="19px" height="41px" fill="#ff9926"/><path d="M292.412,325.033 311.091,325.033 311.091,283.166 282.841,283.166z" fill="#ff9926"/><path d="M153.909,283.166 153.909,325.033 172.588,325.033 182.158,283.166z" fill="#ff9926"/><rect x="119px" y="283px" width="19px" height="41px" fill="#ff9926"/><rect x="326px" y="283px" width="19px" height="41px" fill="#ff9926"/><rect x="360px" y="283px" width="19px" height="41px" fill="#ff9926"/><rect x="395px" y="283px" width="19px" height="41px" fill="#ff9926"/><rect x="430px" y="283px" width="19px" height="41px" fill="#ff9926"/><path d="M228.5,23.968 139.416,127.565 317.585,127.565z" fill="#fecc33"/><path d="M203.636,165.065c0-4.143,3.358-7.5,7.5-7.5h42.727c4.143,0,7.5,3.357,7.5,7.5v61.233h153.909   v-83.733H49.727v83.733h153.909V165.065z M288.591,191.616h99.455c4.143,0,7.5,3.357,7.5,7.5s-3.357,7.5-7.5,7.5h-99.455   c-4.143,0-7.5-3.357-7.5-7.5S284.448,191.616,288.591,191.616z M176.409,206.616H76.955c-4.142,0-7.5-3.357-7.5-7.5   s3.358-7.5,7.5-7.5h99.455c4.142,0,7.5,3.357,7.5,7.5S180.551,206.616,176.409,206.616z" fill="#ff9926"/><rect x="218px" y="172px" width="27px" height="53px" fill="#e43017"/><path d="M257.884,241.299 207.115,241.299 158.83,452.533 306.17,452.533z" fill="#fecc33"/><path d="M176.409,191.616H76.955c-4.142,0-7.5,3.357-7.5,7.5s3.358,7.5,7.5,7.5h99.455c4.142,0,7.5-3.357,7.5-7.5   S180.551,191.616,176.409,191.616z"/><path d="M288.591,206.616h99.455c4.143,0,7.5-3.357,7.5-7.5s-3.357-7.5-7.5-7.5h-99.455c-4.143,0-7.5,3.357-7.5,7.5   S284.448,206.616,288.591,206.616z"/><path d="M457.5,226.299h-27.228v-91.233c0-4.143-3.357-7.5-7.5-7.5h-85.405L234.187,7.575c-1.425-1.657-3.501-2.61-5.687-2.61   c-2.186,0-4.262,0.953-5.687,2.61l-103.18,119.99H42.227c-4.142,0-7.5,3.357-7.5,7.5v91.233H7.5c-4.142,0-7.5,3.357-7.5,7.5v98.734   c0,4.143,3.358,7.5,7.5,7.5h161.659l-25.334,110.829c-0.923,4.037,1.602,8.06,5.64,8.982c0.563,0.129,1.125,0.19,1.678,0.19   c3.42,0,6.51-2.355,7.305-5.831l0.382-1.671l48.286-211.234h50.769l48.285,211.234l0.382,1.671   c0.795,3.476,3.885,5.831,7.305,5.831c0.554,0,1.116-0.062,1.678-0.19c4.038-0.923,6.563-4.945,5.641-8.982l-25.334-110.829H457.5   c4.143,0,7.5-3.357,7.5-7.5v-98.734C465,229.656,461.643,226.299,457.5,226.299z M450,283.166v41.867h-19.728v-41.867l0,0   c0-4.143-3.357-7.5-7.5-7.5s-7.5,3.357-7.5,7.5l0,0v41.867h-19.727v-41.867l0,0c0-4.143-3.357-7.5-7.5-7.5s-7.5,3.357-7.5,7.5l0,0   v41.867h-19.728v-41.867l0,0c0-4.143-3.357-7.5-7.5-7.5s-7.5,3.357-7.5,7.5l0,0v41.867h-19.728v-41.867l0,0   c0-4.143-3.357-7.5-7.5-7.5s-7.5,3.357-7.5,7.5l0,0v41.867h-18.679l-9.57-41.867l-9.57-41.867H450V283.166z M172.588,325.033   h-18.679v-41.867l0,0c0-4.143-3.358-7.5-7.5-7.5s-7.5,3.357-7.5,7.5l0,0v41.867h-19.728v-41.867l0,0c0-4.143-3.358-7.5-7.5-7.5   s-7.5,3.357-7.5,7.5l0,0v41.867H84.455v-41.867l0,0c0-4.143-3.358-7.5-7.5-7.5c-4.142,0-7.5,3.357-7.5,7.5l0,0v41.867H49.727   v-41.867l0,0c0-4.143-3.358-7.5-7.5-7.5s-7.5,3.357-7.5,7.5l0,0v41.867H15v-41.867v-41.867h176.728l-9.57,41.867L172.588,325.033z    M49.727,142.565h365.545v83.733H261.363v-61.233c0-4.143-3.357-7.5-7.5-7.5h-42.727c-4.142,0-7.5,3.357-7.5,7.5v61.233H49.727   V142.565z M246.363,226.299h-27.727v-53.733h27.727V226.299z M228.5,23.968l89.085,103.598H139.416L228.5,23.968z"/></g><g transform="matrix(0.04301075264811516 0 0 0.04301075264811516 252.5 340)" id="L1_363"><path d="M330.81,267.789c0.984-7.167,1.945-14.166,2.876-20.694v-8.909l-73.062,7.69v54.159   c0,4.143-3.357,7.5-7.5,7.5s-7.5-3.357-7.5-7.5v-60.911c0-3.838,2.897-7.057,6.715-7.459l81.347-8.563v-22.736   c-18.34,1.742-63.684,5.65-101.313,5.65s-82.973-3.908-101.313-5.65v22.736l81.347,8.563c4.119,0.434,7.107,4.125,6.674,8.244   c-0.405,3.853-3.66,6.716-7.45,6.716c-0.263,0-0.527-0.014-0.794-0.042l-79.776-8.397v8.907c0.931,6.533,1.893,13.537,2.878,20.708   c3.267,23.809,6.971,50.794,10.442,65.848c9.866,42.778,45.229,71.521,87.993,71.521c42.766,0,78.127-28.742,87.993-71.521   C323.839,318.593,327.542,291.603,330.81,267.789z M256.832,351.593h-48.92c-4.143,0-7.5-3.357-7.5-7.5s3.357-7.5,7.5-7.5h7.396   c-0.932-2.639-0.35-5.692,1.76-7.804c2.93-2.928,7.678-2.928,10.607,0l4.696,4.697l4.696-4.697c2.93-2.928,7.678-2.928,10.607,0   c2.111,2.111,2.692,5.165,1.76,7.804h7.396c4.143,0,7.5,3.357,7.5,7.5S260.975,351.593,256.832,351.593z" fill="#ff9926"/><path d="M124.352,184.63c0.601,0.063,60.649,6.387,108.021,6.387c47.372,0,107.42-6.323,108.021-6.387   c2.113-0.223,4.227,0.458,5.809,1.882c1.581,1.422,2.484,3.449,2.484,5.576v37.735c0,0.01,0,0.019,0,0.029V410h56.937V207.76   c0-17.063-2.572-33.706-7.358-49.512H260.128l-0.156,2.956c-0.211,3.982-3.501,7.104-7.489,7.104h-39.965   c-3.988,0-7.278-3.121-7.489-7.104l-0.156-2.956H66.481c-4.787,15.804-7.359,32.447-7.359,49.512V410h56.937V229.852   c0-0.01,0-0.019,0-0.029v-37.735c0-2.127,0.903-4.154,2.484-5.576C120.125,185.09,122.238,184.407,124.352,184.63z" fill="#4c4c4c"/><rect x="59px" y="425px" width="56px" height="25px" fill="#fecc33"/><rect x="348px" y="425px" width="56px" height="25px" fill="#ff9926"/><path d="M199.861,63.66l-11.248-23.527c-34.436,8.979-64.435,28.369-86.863,54.268h77.694   c4.142,0,7.499,3.357,7.5,7.499h14.943L199.861,63.66z" fill="#4c4c4c"/><path d="M263.113,101.9h14.944c0.001-4.142,3.358-7.499,7.5-7.499h77.459   c-22.377-25.865-52.296-45.247-86.635-54.257L265.139,63.66L263.113,101.9z" fill="#4c4c4c"/><path d="M260.923,143.248h132.043c-4.857-11.955-11.025-23.303-18.328-33.847h-89.081   c-4.143,0-7.5-3.357-7.5-7.5V101.9h-14.944L260.923,143.248z" fill="#ff9926"/><path d="M204.077,143.248l-2.19-41.348h-14.943v0.001c0,4.143-3.357,7.5-7.5,7.5H90.119   c-7.307,10.543-13.478,21.89-18.338,33.847H204.077z" fill="#fecc33"/><path d="M232.372,54.272c4.143,0,7.5,3.357,7.5,7.5s-3.357,7.5-7.5,7.5h-17.193l4.452,84.035h25.738   l4.87-91.932c0.052-0.984,0.298-1.949,0.723-2.839l13.741-28.741c-0.359-8.435-3.547-10.954-6.976-12.381   C251.928,15,242.509,15,232.537,15h-0.112c-24.672,0-31.636,1.494-32.132,14.787l11.706,24.485H232.372z" fill="#fecc33"/><path d="M256.832,336.593h-7.396c0.932-2.639,0.35-5.692-1.76-7.804c-2.93-2.928-7.678-2.928-10.607,0l-4.696,4.697l-4.696-4.697   c-2.93-2.928-7.678-2.928-10.607,0c-2.111,2.111-2.692,5.165-1.76,7.804h-7.396c-4.143,0-7.5,3.357-7.5,7.5s3.357,7.5,7.5,7.5   h48.92c4.143,0,7.5-3.357,7.5-7.5S260.975,336.593,256.832,336.593z"/><path d="M421.26,150.748c0-4.143-3.357-7.5-7.5-7.5h-4.571c-4.431-12.156-10.103-23.857-16.948-34.884   c2.216-1.303,3.708-3.706,3.708-6.463c0-4.143-3.357-7.5-7.5-7.5h-5.782c-1.269-1.682-2.559-3.35-3.886-4.991   c-25.423-31.417-60.567-53.987-99.433-63.993c-1.398-10.695-6.704-18.04-15.855-21.85C254.925,0,243.995,0,232.481,0   C220.98,0,210.06,0,201.49,3.573c-9.138,3.811-14.437,11.15-15.836,21.833c-38.932,9.962-74.139,32.511-99.611,63.933   c-1.349,1.664-2.659,3.356-3.947,5.063h-5.801c-4.143,0-7.5,3.357-7.5,7.5c0,2.761,1.495,5.166,3.716,6.468   c-6.847,11.024-12.521,22.723-16.953,34.878H51.24c-4.143,0-7.5,3.357-7.5,7.5c0,3.991,3.119,7.244,7.052,7.477   c-4.385,16.057-6.67,32.721-6.67,49.534v209.702c0,0.013-0.002,0.025-0.002,0.039s0.002,0.026,0.002,0.039V457.5   c0,4.143,3.357,7.5,7.5,7.5h81.937c4.143,0,7.5-3.357,7.5-7.5s-3.357-7.5-7.5-7.5h-2.5v-32.481c0-0.007,0.001-0.013,0.001-0.019   s-0.001-0.013-0.001-0.019v-75.405c6.078,21.835,18.238,40.673,35.399,54.715c18.691,15.294,41.484,23.378,65.914,23.378   s47.223-8.084,65.914-23.378c17.163-14.043,29.323-32.883,35.399-54.717V450h-2.5c-4.143,0-7.5,3.357-7.5,7.5s3.357,7.5,7.5,7.5   h81.937c4.143,0,7.5-3.357,7.5-7.5V207.76c0-16.807-2.283-33.467-6.665-49.522C418.008,158.132,421.26,154.824,421.26,150.748z    M276.382,40.145c34.339,9.01,64.258,28.392,86.635,54.257h-77.459c-4.142,0-7.499,3.357-7.5,7.499v0.001   c0,4.143,3.357,7.5,7.5,7.5h89.081c7.302,10.544,13.47,21.892,18.328,33.847H260.923l2.19-41.348l2.026-38.24L276.382,40.145z    M232.425,15h0.112c9.972,0,19.391,0,25.19,2.415c3.429,1.427,6.616,3.946,6.976,12.381l-13.741,28.741   c-0.425,0.89-0.671,1.854-0.723,2.839l-4.87,91.932h-25.738l-4.452-84.035h17.193c4.143,0,7.5-3.357,7.5-7.5s-3.357-7.5-7.5-7.5   h-20.373l-11.706-24.485C200.789,16.494,207.753,15,232.425,15z M90.119,109.401h89.326c4.143,0,7.5-3.357,7.5-7.5V101.9   c-0.001-4.142-3.358-7.499-7.5-7.499H101.75c22.427-25.899,52.427-45.289,86.863-54.268l11.248,23.527l2.026,38.24l2.19,41.348   H71.781C76.641,131.292,82.812,119.944,90.119,109.401z M116.059,450H59.122v-25h56.937V450z M333.686,223.102l-81.347,8.563   c-3.817,0.402-6.715,3.621-6.715,7.459v60.911c0,4.143,3.357,7.5,7.5,7.5s7.5-3.357,7.5-7.5v-54.159l73.062-7.69v8.909   c-0.931,6.529-1.892,13.528-2.876,20.694c-3.268,23.813-6.971,50.804-10.444,65.859c-9.866,42.778-45.228,71.521-87.993,71.521   c-42.765,0-78.127-28.742-87.993-71.521c-3.472-15.054-7.176-42.039-10.442-65.848c-0.985-7.171-1.947-14.175-2.878-20.708v-8.907   l79.776,8.397c0.267,0.028,0.531,0.042,0.794,0.042c3.79,0,7.045-2.863,7.45-6.716c0.434-4.119-2.555-7.811-6.674-8.244   l-81.347-8.563v-22.736c18.341,1.742,63.684,5.65,101.313,5.65s82.974-3.908,101.313-5.65V223.102z M405.622,450h-56.937v-25   h56.937V450z M405.622,410h-56.937V229.852c0-0.01,0-0.019,0-0.029v-37.735c0-2.127-0.903-4.154-2.484-5.576   c-1.582-1.424-3.695-2.104-5.809-1.882c-0.601,0.063-60.648,6.387-108.021,6.387c-47.371,0-107.42-6.323-108.021-6.387   c-2.113-0.223-4.227,0.46-5.809,1.882c-1.581,1.422-2.484,3.449-2.484,5.576v37.735c0,0.01,0,0.019,0,0.029V410H59.122V207.76   c0-17.065,2.572-33.708,7.359-49.512h138.391l0.156,2.956c0.211,3.982,3.501,7.104,7.489,7.104h39.965   c3.988,0,7.278-3.121,7.489-7.104l0.156-2.956h138.135c4.787,15.806,7.358,32.449,7.358,49.512V410z"/></g><g transform="matrix(0.08602150529623032 0 0 0.08602150529623032 67.5 67.5)" id="L1_364"><path d="M125,450h75.543c-9.891-9.502-16.2-22.722-16.516-37.327l-0.491-22.672L147.5,390   c-4.142,0-7.5-3.358-7.5-7.5s3.358-7.5,7.5-7.5l35.71,0.001L182.668,350H125c-27.57,0-50,22.43-50,50S97.43,450,125,450z" fill="#3b913e"/><path d="M180.616,255.317l-3.627-167.335c-1.216-2.703-2.146-5.524-2.726-8.428l-8.233-41.166   c-0.605-3.025-0.822-6.005-0.676-8.895C134.123,51.104,115,86.711,115,126.006C115,174.139,143.024,228.139,180.616,255.317z" fill="#fecc33"/><path d="M299.647,29.492c0.146,2.89-0.071,5.87-0.676,8.895l-8.233,41.166   c-0.581,2.904-1.511,5.725-2.726,8.428l-3.627,167.336C321.977,228.14,350,174.139,350,126.006   C350,86.712,330.878,51.104,299.647,29.492z" fill="#fecc33"/><path d="M340,350h-57.668l-0.383,17.665c-0.042,1.956,0.682,3.797,2.039,5.184s3.182,2.15,5.138,2.15H317.5   c4.142,0,7.5,3.357,7.5,7.5s-3.358,7.5-7.5,7.5h-28.375c-6.024,0-11.656-2.365-15.858-6.659c-4.203-4.295-6.445-9.977-6.314-15.999   l0.071-3.273l5.583-257.539C265.238,111.805,256.425,115,247.5,115h-30c-8.925,0-17.738-3.195-25.106-8.471l6.629,305.82   c0.434,20.021,16.504,36.438,36.274,37.582c0.73,0.042,1.464,0.069,2.203,0.069H340c27.57,0,50-22.43,50-50S367.57,350,340,350z" fill="#4fc153"/><path d="M197.5,15c-5.691,0-10.542,2.094-13.659,5.896s-4.219,8.97-3.103,14.55l8.233,41.166   C191.507,89.29,204.571,100,217.5,100h30c12.929,0,25.993-10.71,28.529-23.388l8.233-41.166c1.116-5.58,0.014-10.747-3.103-14.55   S273.191,15,267.5,15H197.5z M197.197,52.196c2.929-2.928,7.678-2.928,10.606,0l10,10c2.929,2.93,2.929,7.678,0,10.607   C216.339,74.268,214.419,75,212.5,75s-3.839-0.732-5.303-2.196l-10-10C194.268,59.874,194.268,55.126,197.197,52.196z    M267.803,62.804l-10,10C256.339,74.268,254.419,75,252.5,75s-3.839-0.732-5.303-2.196c-2.929-2.93-2.929-7.678,0-10.607l10-10   c2.929-2.928,7.678-2.928,10.606,0C270.732,55.126,270.732,59.874,267.803,62.804z" fill="#4fc153"/><path d="M340,335h-57.343l1.332-61.462c22.229-13.29,42.475-35.134,57.346-61.985C356.596,183.997,365,153.616,365,126.006   c0-27.074-8.112-53.111-23.46-75.297c-14.846-21.462-35.419-37.909-59.52-47.625C277.666,1.065,272.755,0,267.5,0h-70   c-5.256,0-10.168,1.066-14.523,3.085c-24.099,9.716-44.671,26.163-59.516,47.622C108.113,72.894,100,98.932,100,126.006   c0,27.609,8.404,57.989,23.663,85.544c14.871,26.852,35.118,48.697,57.348,61.988L182.343,335H125c-35.841,0-65,29.159-65,65   s29.159,65,65,65h215c35.841,0,65-29.159,65-65S375.841,335,340,335z M340,450H237.5c-0.74,0-1.473-0.027-2.203-0.069   c-19.77-1.144-35.84-17.561-36.274-37.582l-6.629-305.82c7.368,5.276,16.181,8.471,25.106,8.471h30   c8.925,0,17.738-3.195,25.106-8.471l-5.583,257.539l-0.071,3.273c-0.131,6.022,2.112,11.704,6.314,15.999   c4.202,4.294,9.834,6.659,15.858,6.659H317.5c4.142,0,7.5-3.357,7.5-7.5s-3.358-7.5-7.5-7.5h-28.375   c-1.956,0-3.781-0.764-5.138-2.15s-2.081-3.228-2.039-5.184L282.332,350H340c27.57,0,50,22.43,50,50S367.57,450,340,450z M125,350   h57.668l0.542,25.001L147.5,375c-4.142,0-7.5,3.358-7.5,7.5s3.358,7.5,7.5,7.5l36.035,0.001l0.491,22.672   c0.316,14.605,6.626,27.825,16.516,37.327H125c-27.57,0-50-22.43-50-50S97.43,350,125,350z M284.384,255.317l3.627-167.336   c1.216-2.703,2.146-5.524,2.726-8.428l8.233-41.166c0.605-3.025,0.822-6.005,0.676-8.895C330.878,51.104,350,86.712,350,126.006   C350,174.139,321.977,228.14,284.384,255.317z M281.159,20.896c3.117,3.803,4.219,8.97,3.103,14.55l-8.233,41.166   C273.493,89.29,260.429,100,247.5,100h-30c-12.929,0-25.993-10.71-28.529-23.388l-8.233-41.166   c-1.116-5.58-0.014-10.747,3.103-14.55S191.809,15,197.5,15h70C273.191,15,278.042,17.094,281.159,20.896z M165.353,29.493   c-0.146,2.89,0.071,5.87,0.676,8.895l8.233,41.166c0.581,2.904,1.511,5.725,2.726,8.428l3.627,167.335   C143.024,228.139,115,174.139,115,126.006C115,86.711,134.123,51.104,165.353,29.493z"/><path d="M207.197,72.804C208.661,74.268,210.581,75,212.5,75s3.839-0.732,5.303-2.196c2.929-2.93,2.929-7.678,0-10.607l-10-10   c-2.929-2.928-7.678-2.928-10.606,0c-2.929,2.93-2.929,7.678,0,10.607L207.197,72.804z"/><path d="M257.197,52.196l-10,10c-2.929,2.93-2.929,7.678,0,10.607C248.661,74.268,250.581,75,252.5,75s3.839-0.732,5.303-2.196   l10-10c2.929-2.93,2.929-7.678,0-10.607C264.875,49.269,260.125,49.269,257.197,52.196z"/></g><g transform="matrix(0.08421052992343903 0 0 0.08421052992343903 155 330)" id="L1_365"><path d="M39.479,121.149L20.56,383.851H65V180.434c0-4.142,3.358-7.5,7.5-7.5h330c4.142,0,7.5,3.358,7.5,7.5   v203.417h44.44l-18.92-262.701H39.479z" fill="#fecc33"/><rect x="47px" y="91px" width="381px" height="15px" fill="#ff9926"/><path d="M375.627,222.84c1.539,1.374,2.514,3.366,2.514,5.592c0,4.142-3.358,7.5-7.5,7.5h-2.512v5   c4.141,0.001,7.497,3.359,7.497,7.5v135.419H395V187.934h-19.373V222.84z" fill="#ff9926"/><path d="M340.472,235.932c-4.142,0-7.5-3.358-7.5-7.5c0-2.225,0.975-4.218,2.514-5.592v-34.906h-21.887   v34.906c1.539,1.374,2.514,3.366,2.514,5.592c0,4.142-3.358,7.5-7.5,7.5H306.1v5c4.142,0,7.499,3.358,7.499,7.5v135.419h21.887   V248.432c0-4.142,3.358-7.5,7.5-7.5c0.001,0,0.003,0,0.004,0v-5H340.472z" fill="#ff9926"/><path d="M278.443,235.932c-4.142,0-7.5-3.358-7.5-7.5c0-2.225,0.975-4.218,2.514-5.592v-34.906h-71.915   v34.906c1.539,1.374,2.514,3.366,2.514,5.592c0,4.142-3.358,7.5-7.5,7.5h-2.517v5c0.001,0,0.002,0,0.002,0   c4.143,0,7.501,3.358,7.501,7.5v105.419h26.985v-27.006c0-4.142,3.358-7.5,7.5-7.5s7.5,3.358,7.5,7.5v27.006h29.93V248.432   c0-4.142,3.358-7.5,7.5-7.5c0,0,0.002,0,0.003,0v-5H278.443z" fill="#ff9926"/><path d="M166.387,235.932c-4.142,0-7.5-3.358-7.5-7.5c0-2.225,0.975-4.218,2.514-5.592v-34.906h-21.887   v34.906c1.539,1.374,2.514,3.366,2.514,5.592c0,4.142-3.358,7.5-7.5,7.5h-2.518v5c0.001,0,0.003,0,0.004,0   c4.142,0,7.5,3.358,7.5,7.5v135.419h21.887V248.432c0-4.142,3.357-7.499,7.499-7.5v-5H166.387z" fill="#ff9926"/><path d="M342.99,235.932v5c4.14,0.002,7.496,3.359,7.496,7.5v135.419h10.142V248.432   c0-4.142,3.358-7.5,7.5-7.5c0.001,0,0.002,0,0.003,0v-5H342.99z" fill="#fecc33"/><rect x="350px" y="187px" width="10px" height="32px" fill="#fecc33"/><path d="M280.96,235.932v5c4.141,0.001,7.497,3.359,7.497,7.5v135.419h10.142V248.432   c0-4.142,3.358-7.5,7.5-7.5l0.001,0v-5H280.96z" fill="#fecc33"/><rect x="288px" y="187px" width="10px" height="32px" fill="#fecc33"/><rect x="176px" y="187px" width="10px" height="32px" fill="#fecc33"/><path d="M168.9,235.932v5l0.001,0c4.142,0,7.5,3.358,7.5,7.5v135.419h10.142V248.432   c0-4.141,3.357-7.499,7.497-7.5v-5H168.9z" fill="#fecc33"/><rect x="114px" y="187px" width="10px" height="32px" fill="#fecc33"/><path d="M106.87,235.932v5c0.001,0,0.002,0,0.003,0c4.142,0,7.5,3.358,7.5,7.5v135.419h10.142V248.432   c0-4.141,3.356-7.497,7.496-7.5v-5H106.87z" fill="#fecc33"/><path d="M104.358,235.932c-4.142,0-7.5-3.358-7.5-7.5c0-2.225,0.975-4.218,2.514-5.592v-34.906H80v195.917   h19.373V248.432c0-4.141,3.357-7.499,7.497-7.5v-5H104.358z" fill="#ff9926"/><path d="M467.5,91.149c4.142,0,7.5-3.358,7.5-7.5s-3.358-7.5-7.5-7.5H7.5c-4.142,0-7.5,3.358-7.5,7.5s3.358,7.5,7.5,7.5H32v15.024   c-3.706,0.246-6.71,3.182-6.98,6.937l-20,277.701c-0.15,2.077,0.571,4.123,1.99,5.648c1.418,1.524,3.408,2.391,5.49,2.391h181.542   c4.142,0,7.5-3.358,7.5-7.5v-22.5h71.915v22.5c0,4.142,3.358,7.5,7.5,7.5H462.5c2.083,0,4.072-0.866,5.49-2.391   c1.419-1.525,2.14-3.571,1.99-5.648l-20-277.701c-0.27-3.755-3.275-6.692-6.98-6.937V91.149H467.5z M395,383.851h-19.373V248.432   c0-4.141-3.357-7.499-7.497-7.5c-0.001,0-0.002,0-0.003,0c-4.142,0-7.5,3.358-7.5,7.5v135.419h-10.142V248.432   c0-4.141-3.356-7.497-7.496-7.5c-0.001,0-0.003,0-0.004,0c-4.142,0-7.5,3.358-7.5,7.5v135.419h-21.887V248.432   c0-4.142-3.357-7.499-7.499-7.5l-0.001,0c-4.142,0-7.5,3.358-7.5,7.5v135.419h-10.142V248.432c0-4.141-3.357-7.499-7.497-7.5   c-0.001,0-0.002,0-0.002,0c-4.143,0-7.501,3.358-7.501,7.5v105.419h-29.93v-27.006c0-4.142-3.358-7.5-7.5-7.5s-7.5,3.358-7.5,7.5   v27.006h-26.985V248.432c0-4.142-3.358-7.5-7.5-7.5c0,0-0.002,0-0.003,0c-4.141,0.001-7.497,3.359-7.497,7.5v135.419h-10.142   V248.432c0-4.142-3.358-7.5-7.5-7.5l-0.001,0c-4.142,0-7.499,3.358-7.499,7.5v135.419h-21.887V248.432c0-4.142-3.358-7.5-7.5-7.5   c-0.001,0-0.003,0-0.004,0c-4.14,0.002-7.496,3.359-7.496,7.5v135.419h-10.142V248.432c0-4.142-3.358-7.5-7.5-7.5   c-0.001,0-0.002,0-0.003,0c-4.141,0.001-7.497,3.359-7.497,7.5v135.419H80V187.934h19.373v34.906   c-1.539,1.374-2.514,3.366-2.514,5.592c0,4.142,3.358,7.5,7.5,7.5h2.512h25.14h2.518c4.142,0,7.5-3.358,7.5-7.5   c0-2.225-0.975-4.218-2.514-5.592v-34.906h21.887v34.906c-1.539,1.374-2.514,3.366-2.514,5.592c0,4.142,3.358,7.5,7.5,7.5h2.513   h25.14h2.517c4.142,0,7.5-3.358,7.5-7.5c0-2.225-0.975-4.218-2.514-5.592v-34.906h71.915v34.906   c-1.539,1.374-2.514,3.366-2.514,5.592c0,4.142,3.358,7.5,7.5,7.5h2.517h25.14h2.513c4.142,0,7.5-3.358,7.5-7.5   c0-2.225-0.975-4.218-2.514-5.592v-34.906h21.887v34.906c-1.539,1.374-2.514,3.366-2.514,5.592c0,4.142,3.358,7.5,7.5,7.5h2.518   h25.14h2.512c4.142,0,7.5-3.358,7.5-7.5c0-2.225-0.975-4.218-2.514-5.592v-34.906H395V383.851z M360.627,187.934v32.998h-10.142   v-32.998H360.627z M298.599,187.934v32.998h-10.142v-32.998H298.599z M186.542,187.934v32.998h-10.142v-32.998H186.542z    M124.514,187.934v32.998h-10.142v-32.998H124.514z M410,383.851V180.434c0-4.142-3.358-7.5-7.5-7.5h-330   c-4.142,0-7.5,3.358-7.5,7.5v203.417H20.56l18.92-262.701h396.041l18.92,262.701H410z M47,91.149h381v15H47V91.149z"/></g><g transform="matrix(0.08602113276720047 0 0 0.08602113276720047 242.5 67.5)" id="L1_366"><path d="M274.754,261.573h-84.506c0.846,65.564-9.104,131.162-29.343,188.427h143.192   C283.858,392.735,273.908,327.137,274.754,261.573z" fill="#ff9926"/><path d="M273.9,216.573h3.135c0.449-5.014,0.975-10.013,1.554-15h-92.175c0.579,4.987,1.104,9.986,1.554,15   H243.9c4.142,0,7.5,3.358,7.5,7.5s-3.358,7.5-7.5,7.5h-54.797c0.318,4.994,0.587,9.994,0.778,15h85.239   c0.191-5.006,0.461-10.006,0.778-15H273.9c-4.142,0-7.5-3.358-7.5-7.5S269.758,216.573,273.9,216.573z" fill="#fecc33"/><path d="M280.523,186.573c1.527-10.65,3.352-21.211,5.486-31.644H178.993   c2.134,10.433,3.958,20.994,5.486,31.644H280.523z" fill="#4fc153"/><path d="M288.855,41.541c-0.019-0.003-0.039-0.002-0.058-0.005c-4.084-0.693-6.833-4.565-6.14-8.649   c1.016-5.987,2.146-11.969,3.357-17.887H178.989c1.211,5.918,2.341,11.9,3.357,17.887c0.693,4.083-2.056,7.956-6.14,8.649   c-0.02,0.003-0.039,0.002-0.058,0.005c0.264,1.698,0.518,3.399,0.766,5.102h111.176C288.337,44.94,288.591,43.239,288.855,41.541z" fill="#00e4c5"/><path d="M288.797,88.179c-4.084-0.693-6.833-4.565-6.14-8.649c1.016-5.987,2.146-11.969,3.357-17.887   H178.989c1.211,5.917,2.34,11.899,3.357,17.888c0.693,4.083-2.055,7.956-6.139,8.649c-0.02,0.003-0.04,0.002-0.06,0.005   c0.264,1.698,0.518,3.399,0.766,5.101H288.09c0.248-1.703,0.502-3.404,0.766-5.102C288.836,88.181,288.817,88.183,288.797,88.179z" fill="#e43017"/><path d="M282.657,126.174c1.016-5.987,2.146-11.97,3.357-17.888H178.989   c1.211,5.918,2.341,11.9,3.357,17.888c0.693,4.083-2.056,7.956-6.14,8.649c-0.02,0.003-0.039,0.002-0.058,0.005   c0.264,1.698,0.518,3.399,0.766,5.102h111.176c0.248-1.703,0.502-3.404,0.766-5.102c-0.02-0.003-0.039-0.002-0.058-0.005   C284.713,134.13,281.964,130.257,282.657,126.174z" fill="#00e4c5"/><path d="M169.607,139.929c-0.004,0-0.008,0-0.011,0h-31.083c-4.142,0-7.5,3.358-7.5,7.5s3.358,7.5,7.5,7.5h25.143   c20.591,97.633,13.659,207.034-18.707,295.071h-6.436c-4.142,0-7.5,3.358-7.5,7.5s3.358,7.5,7.5,7.5h11.616   c0.014,0,0.029,0.002,0.043,0.002c0.009,0,0.017-0.002,0.026-0.002h164.605c0.009,0,0.017,0.002,0.026,0.002   c0.014,0,0.029-0.002,0.043-0.002h11.616c4.142,0,7.5-3.358,7.5-7.5s-3.358-7.5-7.5-7.5h-6.436   c-32.367-88.037-39.298-197.438-18.707-295.071h25.143c4.142,0,7.5-3.358,7.5-7.5s-3.358-7.5-7.5-7.5h-38.4H176.913H169.607z    M286.009,154.929c-2.134,10.433-3.958,20.994-5.486,31.644h-96.044c-1.527-10.65-3.352-21.211-5.486-31.644H286.009z M160.905,450   c20.239-57.265,30.189-122.863,29.343-188.427h84.506c-0.846,65.564,9.104,131.162,29.343,188.427H160.905z M273.9,231.573h1.999   c-0.318,4.994-0.587,9.994-0.778,15h-85.239c-0.191-5.006-0.461-10.006-0.778-15H243.9c4.142,0,7.5-3.358,7.5-7.5   s-3.358-7.5-7.5-7.5h-55.933c-0.449-5.014-0.975-10.013-1.554-15h92.175c-0.579,4.987-1.104,9.986-1.554,15H273.9   c-4.142,0-7.5,3.358-7.5,7.5S269.758,231.573,273.9,231.573z"/><path d="M138.513,93.286c-4.142,0-7.5,3.358-7.5,7.5s3.358,7.5,7.5,7.5h25.162c1.418,6.725,2.721,13.559,3.881,20.396   c0.621,3.66,3.794,6.247,7.386,6.247c0.397,0,0.8-0.036,1.205-0.102c0.02-0.003,0.039-0.002,0.058-0.005   c4.084-0.693,6.833-4.565,6.14-8.649c-1.016-5.987-2.146-11.97-3.357-17.888h107.025c-1.211,5.918-2.341,11.9-3.357,17.888   c-0.693,4.083,2.056,7.956,6.14,8.649c0.02,0.003,0.039,0.002,0.058,0.005c0.405,0.065,0.808,0.102,1.205,0.102   c3.591,0,6.765-2.587,7.386-6.247c1.16-6.837,2.463-13.672,3.881-20.396h25.162c4.142,0,7.5-3.358,7.5-7.5s-3.358-7.5-7.5-7.5   h-31.084c-0.002,0-0.004,0-0.006,0h-7.309H176.912H138.513z"/><path d="M182.345,79.531c-1.016-5.989-2.146-11.971-3.357-17.888h107.025c-1.211,5.918-2.341,11.9-3.357,17.887   c-0.693,4.083,2.056,7.956,6.14,8.649c0.02,0.003,0.039,0.002,0.059,0.005c0.404,0.065,0.807,0.102,1.204,0.102   c3.591,0,6.765-2.587,7.386-6.247c1.16-6.836,2.463-13.671,3.881-20.396h25.162c4.142,0,7.5-3.358,7.5-7.5s-3.358-7.5-7.5-7.5   h-31.084c-0.002,0-0.004,0-0.006,0h-7.31H176.913h-38.4c-4.142,0-7.5,3.358-7.5,7.5s3.358,7.5,7.5,7.5h25.162   c1.418,6.723,2.721,13.558,3.882,20.397c0.621,3.659,3.794,6.246,7.385,6.246c0.397,0,0.8-0.036,1.204-0.102   c0.02-0.003,0.04-0.002,0.06-0.005C180.29,87.487,183.039,83.614,182.345,79.531z"/><path d="M182.345,32.887C181.329,26.9,180.2,20.918,178.989,15h107.025c-1.211,5.918-2.341,11.9-3.357,17.887   c-0.693,4.083,2.056,7.956,6.14,8.649c0.02,0.003,0.039,0.002,0.058,0.005c0.405,0.065,0.808,0.102,1.205,0.102   c3.591,0,6.765-2.587,7.386-6.247c1.16-6.836,2.463-13.671,3.881-20.396h25.162c4.142,0,7.5-3.358,7.5-7.5s-3.358-7.5-7.5-7.5   h-31.084c-0.002,0-0.004,0-0.006,0H169.613c-0.007,0-0.013,0-0.02,0h-31.08c-4.142,0-7.5,3.358-7.5,7.5s3.358,7.5,7.5,7.5h25.162   c1.418,6.725,2.721,13.56,3.881,20.396c0.621,3.66,3.794,6.247,7.386,6.247c0.397,0,0.8-0.036,1.205-0.102   c0.019-0.003,0.039-0.002,0.058-0.005C180.289,40.843,183.038,36.971,182.345,32.887z"/></g><g transform="matrix(0.15054799616336823 0 0 0.15054799616336823 315 140)" id="L1_367"><path d="M434.171,68.49c-10.208-10.208-23.78-15.829-38.216-15.829c-14.436,0-28.008,5.622-38.215,15.829   L97.048,329.182c10.118,3.248,20.091,6.941,29.894,11.047l23.825-23.797c-2.066-2.07-2.811-5.254-1.638-8.132   c1.564-3.835,5.942-5.678,9.776-4.114c0.973,0.396,1.935,0.813,2.904,1.218l23.187-23.159c-2.082-2.07-2.836-5.264-1.659-8.152   c1.564-3.837,5.943-5.68,9.776-4.114c0.981,0.4,1.959,0.814,2.939,1.223l24.437-24.407c-2.02-2.073-2.74-5.22-1.577-8.071   c1.565-3.834,5.941-5.675,9.778-4.109c0.942,0.385,1.878,0.784,2.816,1.176l23.82-23.791c-2.035-2.072-2.763-5.232-1.596-8.092   c1.565-3.835,5.944-5.675,9.778-4.109c0.952,0.388,1.898,0.789,2.847,1.185l23.807-23.778c-2.052-2.072-2.789-5.245-1.617-8.116   c1.565-3.835,5.943-5.675,9.778-4.11c0.96,0.392,1.91,0.811,2.867,1.211l23.73-23.701c-2.075-2.079-2.817-5.279-1.625-8.164   c1.581-3.828,5.964-5.65,9.795-4.068c19.963,8.247,39.56,18.431,58.278,30.284c15.947,1.355,31.463-4.282,42.8-15.619   C444.379,134.714,450,121.142,450,106.706S444.379,78.698,434.171,68.49z" fill="#e43017"/><path d="M231.969,288.503c3.63,1.996,4.954,6.556,2.958,10.186c-1.365,2.483-3.932,3.888-6.579,3.888   c-1.222,0-2.461-0.299-3.607-0.93c-12.026-6.613-24.572-12.595-37.289-17.779c-0.948-0.386-1.772-0.945-2.455-1.625l-23.187,23.159   c35.557,14.845,68.439,34.999,97.891,60.032l17.435-28.624c-8.544-6.894-17.444-13.43-26.527-19.478   c-3.448-2.296-4.382-6.952-2.086-10.399s6.953-4.382,10.399-2.086c8.914,5.936,17.658,12.321,26.083,19.044l18.17-29.833   c-24.663-18.593-51.595-33.904-80.151-45.56c-0.985-0.402-1.835-0.991-2.533-1.707l-24.437,24.407   C208.297,276.315,220.367,282.122,231.969,288.503z" fill="#ff9926"/><path d="M233.754,408.036l18.043-29.623c-29.496-25.406-62.624-45.691-98.552-60.337   c-0.957-0.39-1.79-0.956-2.477-1.644l-23.825,23.797C165.967,356.571,202.246,379.552,233.754,408.036z" fill="#ff9926"/><path d="M361.567,198.193l17.021-27.945c-16.54-10.131-33.739-18.907-51.222-26.129   c-0.944-0.39-1.764-0.951-2.443-1.631l-23.73,23.701C322.218,174.978,342.487,185.705,361.567,198.193z" fill="#ff9926"/><path d="M311.015,281.189l17.551-28.815c-22.038-15.516-45.796-28.516-70.723-38.69   c-0.976-0.398-1.82-0.98-2.514-1.686l-23.82,23.791C259.759,247.591,286.459,262.831,311.015,281.189z" fill="#ff9926"/><path d="M336.385,239.536l17.375-28.525c-19.264-12.646-39.786-23.445-61.102-32.145   c-0.965-0.394-1.803-0.966-2.492-1.662l-23.807,23.778C290.986,211.274,314.497,224.213,336.385,239.536z" fill="#ff9926"/><path d="M444.777,57.884c-26.921-26.921-70.724-26.921-97.644,0L77.679,327.338c-0.068,0.066-0.135,0.133-0.201,0.202L2.197,402.82   c-2.929,2.929-2.929,7.678,0,10.606c2.929,2.929,7.678,2.929,10.606,0l72.252-72.251c54.018,16.038,104.127,45.033,145.163,84.035   c1.403,1.333,3.256,2.064,5.167,2.064c0.328,0,0.657-0.021,0.986-0.065c2.248-0.298,4.24-1.597,5.419-3.534l26.027-42.731   c0.051-0.08,0.1-0.161,0.148-0.242l25.298-41.535c0.051-0.081,0.101-0.162,0.149-0.245l26.007-42.699   c0.049-0.077,0.095-0.153,0.141-0.231l25.393-41.69c0.029-0.046,0.057-0.092,0.084-0.138l25.198-41.37   c0.049-0.077,0.097-0.155,0.143-0.234l22.472-36.894c19.385,0.886,38.091-6.304,51.927-20.14   C471.698,128.607,471.698,84.804,444.777,57.884z M434.171,144.921c-11.337,11.337-26.853,16.974-42.8,15.619   c-18.718-11.853-38.315-22.037-58.278-30.284c-3.831-1.582-8.214,0.24-9.795,4.068c-1.192,2.885-0.45,6.084,1.625,8.164   c0.679,0.68,1.499,1.242,2.443,1.631c17.482,7.223,34.682,15.999,51.222,26.129l-17.021,27.945   c-19.08-12.489-39.349-23.216-60.374-32.004c-0.957-0.4-1.907-0.819-2.867-1.211c-3.834-1.565-8.213,0.274-9.778,4.11   c-1.172,2.87-0.435,6.044,1.617,8.116c0.69,0.696,1.528,1.268,2.492,1.662c21.316,8.7,41.838,19.499,61.102,32.145l-17.375,28.525   c-21.888-15.323-45.399-28.262-70.027-38.554c-0.948-0.396-1.895-0.797-2.847-1.185c-3.834-1.566-8.212,0.274-9.778,4.109   c-1.167,2.86-0.439,6.02,1.596,8.092c0.694,0.707,1.539,1.288,2.514,1.686c24.926,10.174,48.685,23.174,70.723,38.69   l-17.551,28.815c-24.556-18.358-51.256-33.598-79.506-45.4c-0.939-0.392-1.874-0.791-2.816-1.176   c-3.837-1.566-8.213,0.275-9.778,4.109c-1.164,2.851-0.443,5.999,1.577,8.071c0.698,0.716,1.548,1.305,2.533,1.707   c28.556,11.656,55.488,26.967,80.151,45.56l-18.17,29.833c-8.424-6.724-17.168-13.109-26.083-19.044   c-3.447-2.296-8.104-1.362-10.399,2.086s-1.362,8.104,2.086,10.399c9.083,6.048,17.983,12.583,26.527,19.478l-17.435,28.624   c-29.451-25.034-62.334-45.188-97.891-60.032c-0.969-0.405-1.931-0.821-2.904-1.218c-3.834-1.564-8.212,0.279-9.776,4.114   c-1.173,2.879-0.429,6.062,1.638,8.132c0.687,0.688,1.52,1.254,2.477,1.644c35.928,14.646,69.056,34.932,98.552,60.337   l-18.043,29.623c-31.508-28.484-67.786-51.466-106.811-67.808c-9.803-4.105-19.776-7.798-29.894-11.047L357.74,68.49   c10.208-10.208,23.78-15.829,38.215-15.829c14.436,0,28.008,5.622,38.216,15.829S450,92.27,450,106.706   S444.379,134.714,434.171,144.921z"/><path d="M224.742,301.647c1.146,0.63,2.385,0.93,3.607,0.93c2.647,0,5.213-1.404,6.579-3.888c1.996-3.629,0.672-8.19-2.958-10.186   c-11.603-6.381-23.672-12.188-35.915-17.302c-0.979-0.409-1.957-0.823-2.939-1.223c-3.833-1.566-8.212,0.277-9.776,4.114   c-1.177,2.888-0.423,6.082,1.659,8.152c0.683,0.679,1.508,1.238,2.455,1.625C200.17,289.052,212.715,295.033,224.742,301.647z"/></g><g transform="matrix(0.14540819416583994 -0.0389620081996047 0.0389620081996047 0.14540819416583994 132.13392716666064 150.25124341051787)" id="L1_368"><path d="M278.952,423.471l-96.715-32.399l4.207,35.758C187.921,439.389,199.854,450,212.5,450h40   c12.646,0,24.579-10.611,26.057-23.171L278.952,423.471z" fill="#fecc33"/><path d="M230.214,273.143c-0.001,0-0.001-0.001-0.001-0.001l-12.591-4.218   c-3.928-1.315-6.045-5.566-4.729-9.494c1.315-3.927,5.564-6.044,9.494-4.729l10.115,3.388l68.613-22.985l6.268-53.281   l-144.083,48.268l0.59,5.013l29.775,9.974c3.928,1.315,6.045,5.566,4.729,9.493c-1.051,3.138-3.975,5.12-7.111,5.12   c-0.79,0-1.593-0.126-2.383-0.391l-23.073-7.729l6.268,53.281l60.407,20.236l33.686-11.285c3.931-1.316,8.179,0.802,9.494,4.729   c1.316,3.928-0.802,8.179-4.729,9.494l-92.487,30.983l1.834,15.592l52.201,17.487l52.201-17.488l9.418-80.051L230.214,273.143z" fill="#fecc33"/><path d="M191.281,125.693c-0.79,0-1.593-0.126-2.383-0.391l-26.569-8.901   c-6.265,8.773-10,20.452-8.875,30.017l2.228,18.938l76.819,25.734l76.389-25.59l-91.269-30.575   c-3.928-1.315-6.045-5.566-4.729-9.494c1.316-3.927,5.564-6.045,9.494-4.729l10.115,3.388l57.481-19.256l-20.038-13.36   c-1.656-1.104-2.806-2.821-3.195-4.772c-0.389-1.952,0.014-3.979,1.119-5.634c4.449-6.66,6.893-14.379,7.112-22.389L198.34,84.353   c0.092,0.776,0.068,1.568-0.087,2.348c-0.389,1.952-1.539,3.67-3.195,4.773l-20.039,13.36l18.643,6.245   c3.928,1.315,6.045,5.566,4.729,9.493C197.341,123.711,194.417,125.693,191.281,125.693z" fill="#fecc33"/><path d="M232.5,57.09l40.165-13.456C266.903,26.99,251.08,15,232.5,15c-18.58,0-34.403,11.99-40.165,28.635   L232.5,57.09z" fill="#fecc33"/><path d="M282.764,391.071 256.11,400 280.742,408.251z" fill="#fecc33"/><path d="M256.111,132l54.966,18.414l0.47-3.995c1.125-9.565-2.611-21.244-8.876-30.017L256.111,132z" fill="#fecc33"/><path d="M208.89,65l-18.869-6.321c0.112,4.096,0.808,8.114,2.056,11.954L208.89,65z" fill="#fecc33"/><path d="M299.176,251.573 256.111,266 295.91,279.333z" fill="#fecc33"/><path d="M174.031,321.323 176.674,343.793 208.89,333z" fill="#fecc33"/><path d="M208.89,199 157.62,181.825 161.508,214.874z" fill="#fecc33"/><path d="M301.698,94.619l-17.598-11.732C287.977,75.027,290,66.378,290,57.5c0-3.342-0.303-6.613-0.853-9.8   c-0.035-0.317-0.093-0.634-0.17-0.951C283.927,20.166,260.531,0,232.5,0c-28.031,0-51.427,20.166-56.477,46.75   c-0.077,0.316-0.135,0.633-0.17,0.949C175.303,50.886,175,54.158,175,57.5c0,8.878,2.023,17.527,5.899,25.387l-17.598,11.732   c-16.143,10.762-27.012,34.284-24.745,53.552l9.131,77.617c0.002,0.018,0.004,0.036,0.006,0.055l15.162,128.878   c0.001,0.01,0.002,0.02,0.003,0.03l8.686,73.831C173.909,448.663,192.281,465,212.5,465h40c20.22,0,38.591-16.337,40.953-36.419   l1.1-9.346c0.004-0.029,0.007-0.057,0.01-0.086l15.158-128.838c0.003-0.025,0.006-0.049,0.009-0.074l15.159-128.85   c0.003-0.021,0.005-0.041,0.007-0.062l1.547-13.153C328.71,128.902,317.841,105.38,301.698,94.619z M252.5,450h-40   c-12.646,0-24.579-10.611-26.057-23.171l-4.207-35.758l96.715,32.399l-0.395,3.358C277.079,439.389,265.147,450,252.5,450z    M256.11,400l26.653-8.929l-2.021,17.181L256.11,400z M232.5,392.091l-52.201-17.487l-1.834-15.592l92.487-30.983   c3.927-1.315,6.045-5.566,4.729-9.494c-1.315-3.927-5.563-6.045-9.494-4.729l-33.686,11.285l-60.407-20.236l-6.268-53.281   l23.073,7.729c0.791,0.265,1.593,0.391,2.383,0.391c3.136,0,6.06-1.982,7.111-5.12c1.315-3.927-0.802-8.178-4.729-9.493   l-29.775-9.974l-0.59-5.013l144.083-48.268l-6.268,53.281L232.5,258.091l-10.115-3.388c-3.93-1.315-8.178,0.802-9.494,4.729   c-1.316,3.928,0.801,8.179,4.729,9.494l12.591,4.218c0,0,0.001,0.001,0.002,0.001l63.905,21.408l-9.418,80.051L232.5,392.091z    M193.663,111.08l-18.643-6.245l20.039-13.36c1.656-1.104,2.806-2.821,3.195-4.773c0.156-0.78,0.179-1.572,0.087-2.348   l76.638-25.674c-0.219,8.011-2.663,15.729-7.112,22.389c-1.105,1.655-1.508,3.682-1.119,5.634c0.39,1.951,1.539,3.668,3.195,4.772   l20.038,13.36L232.5,124.091l-10.115-3.388c-3.929-1.316-8.178,0.802-9.494,4.729c-1.316,3.928,0.801,8.179,4.729,9.494   L308.89,165.5l-76.389,25.59l-76.819-25.734l-2.228-18.938c-1.126-9.565,2.609-21.244,8.875-30.017l26.569,8.901   c0.791,0.265,1.593,0.391,2.383,0.391c3.136,0,6.06-1.982,7.11-5.12C199.708,116.646,197.59,112.396,193.663,111.08z M232.5,15   c18.58,0,34.403,11.99,40.165,28.635L232.5,57.09l-40.165-13.456C198.097,26.99,213.92,15,232.5,15z M208.89,65l-16.813,5.632   c-1.247-3.84-1.944-7.858-2.056-11.954L208.89,65z M208.89,199l-47.383,15.873l-3.888-33.049L208.89,199z M174.031,321.323   L208.89,333l-32.216,10.792L174.031,321.323z M299.176,251.573l-3.266,27.759L256.111,266L299.176,251.573z M311.547,146.419   l-0.47,3.995L256.111,132l46.561-15.598C308.936,125.175,312.672,136.854,311.547,146.419z"/></g><g transform="matrix(0.10752688348293304 0 0 0.10752688348293304 62.5 237.5)" id="L1_369"><path d="M198.426,206.256c11.714,22.667,23.811,46.084,24.719,107.43h48.682   c-0.854-57.605-11.604-78.496-22.962-100.553c-12.162-23.621-24.738-48.046-24.738-115.339c0-9.237-0.023-26.031-0.023-26.032   c-0.003-1.991,0.786-3.901,2.193-5.31c1.406-1.409,3.315-2.2,5.307-2.2h18.676v-2.5c0-4.142,3.357-7.5,7.5-7.5c0,0,0,0,0,0l0-8   c0,0,0,0-0.001,0c-3.014,0-5.734-1.804-6.908-4.579C244.021,25.469,228.227,15,210.637,15h-12.869c-4.143,0-7.5-3.358-7.5-7.5h-15   v90.293C175.268,161.445,186.517,183.211,198.426,206.256z M231.604,33.869c4.411,0,8,3.589,8,8s-3.589,8-8,8s-8-3.589-8-8   S227.192,33.869,231.604,33.869z" fill="#4fc153"/><rect x="286px" y="405px" width="34px" height="15px" fill="#ff9926"/><path d="M45.471,420h22.501c4.143,0,7.5,3.358,7.5,7.5h15c0-4.142,3.357-7.5,7.5-7.5h110.23v-15H45.471V420z   " fill="#ff9926"/><rect x="286px" y="435px" width="34px" height="15px" fill="#fecc33"/><path d="M67.972,435H45.471v15h162.731v-15H97.972c-4.143,0-7.5-3.358-7.5-7.5h-15   C75.472,431.642,72.114,435,67.972,435z" fill="#fecc33"/><path d="M160.268,97.793V15.227C96.313,19.104,45.471,72.215,45.471,136.944V390h162.731v-68.814   c0-63.342-11.222-85.055-23.102-108.043C172.892,189.52,160.268,165.092,160.268,97.793z" fill="#0c80e4"/><path d="M286.884,390h34.788v-33.023c0-29.335-7.586-58.251-21.939-83.622   c-1.949-3.446-0.869-7.774,2.378-9.93c-6.487-8.393-16.722-17.611-27.017-28.798c6.764,18.853,11.79,44.173,11.79,86.559   L286.884,390z" fill="#0c80e4"/><path d="M371.438,82.745c-30.44-23.534-70.804-36.494-113.657-36.494v8c4.142,0,7.499,3.358,7.499,7.5v2.609   c37.7,1.09,72.281,10.396,98.041,26.483c30.986,19.35,48.688,47.57,51.188,81.608c0.014,0.185,0.012,0.367,0.013,0.549h5.008   C419.529,138.773,402.45,106.719,371.438,82.745z" fill="#4c4c4c"/><path d="M363.32,90.843c-25.76-16.087-60.341-25.393-98.041-26.483v-2.609c0-4.142-3.357-7.5-7.499-7.5c0,0,0,0-0.001,0   c-4.143,0-7.5,3.358-7.5,7.5v2.5h-18.676c-1.991,0-3.9,0.792-5.307,2.2c-1.407,1.409-2.196,3.319-2.193,5.31   c0,0.001,0.023,16.795,0.023,26.032c0,67.292,12.576,91.718,24.738,115.339c11.358,22.058,22.108,42.948,22.962,100.553h-48.682   c-0.909-61.346-13.005-84.763-24.719-107.43c-11.909-23.044-23.158-44.811-23.158-108.462V7.5c0-4.142-3.357-7.5-7.5-7.5   C92.062,0,30.471,61.433,30.471,136.944V457.5c0,4.142,3.357,7.5,7.5,7.5h177.731c4.143,0,7.5-3.358,7.5-7.5V328.686h48.682   l0.001,128.814c0,4.142,3.357,7.5,7.5,7.5h49.787c4.143,0,7.5-3.358,7.5-7.5V356.977c0-31.918-8.259-63.388-23.883-91.008   c-2.04-3.605-6.617-4.875-10.221-2.835c-0.159,0.09-0.308,0.191-0.458,0.29c-3.248,2.157-4.328,6.484-2.378,9.93   c14.354,25.371,21.939,54.287,21.939,83.622V390h-34.788l0-68.814c0-42.386-5.025-67.706-11.79-86.559   c-3.926-10.941-8.437-19.706-12.892-28.36c-11.867-23.047-23.075-44.815-23.075-108.473c0-5.231-0.008-12.883-0.014-18.542h18.666   c37.827,0,72.487,8.635,97.596,24.314c26.763,16.712,42.038,40.913,44.175,69.985c0.303,4.131,3.907,7.24,8.029,6.93   c3.946-0.29,6.946-3.585,6.942-7.481c0-0.182,0.001-0.364-0.013-0.549C412.008,138.413,394.307,110.193,363.32,90.843z    M208.202,420H97.972c-4.143,0-7.5,3.358-7.5,7.5s3.357,7.5,7.5,7.5h110.23v15H45.471v-15h22.501c4.143,0,7.5-3.358,7.5-7.5   s-3.357-7.5-7.5-7.5H45.471v-15h162.731V420z M208.202,390H45.471V136.944c0-64.729,50.842-117.84,114.797-121.717v82.567   c0,67.298,12.624,91.726,24.833,115.349c11.88,22.988,23.102,44.701,23.102,108.043V390z M321.672,450h-34.787v-15h34.787V450z    M321.672,405v15h-34.787l0-15H321.672z"/><path d="M231.604,49.869c4.411,0,8-3.589,8-8s-3.589-8-8-8s-8,3.589-8,8S227.192,49.869,231.604,49.869z"/><path d="M380.611,70.878c-31.913-24.672-73.683-38.643-118.069-39.577C252.45,12.132,232.586,0,210.637,0h-12.869   c-4.143,0-7.5,3.358-7.5,7.5s3.357,7.5,7.5,7.5h12.869c17.59,0,33.384,10.469,40.234,26.672c1.174,2.775,3.895,4.579,6.908,4.579   c0,0,0,0,0,0c42.854,0,83.218,12.961,113.658,36.494c31.012,23.974,48.091,56.028,48.092,90.255v0.001c0,4.142,3.357,7.5,7.5,7.5   s7.5-3.358,7.5-7.5C434.529,134.025,415.381,97.757,380.611,70.878z"/><path d="M382.379,301.798c-3.364-2.412-8.052-1.642-10.465,1.725c-2.414,3.366-1.642,8.052,1.725,10.465   c7.42,5.32,13.621,11.982,18.365,19.521c-14.329,4.715-24.707,18.217-24.707,34.104V457.5c0,4.142,3.357,7.5,7.5,7.5   s7.5-3.358,7.5-7.5v-89.887c0-9.966,7.017-18.313,16.367-20.391c2.646,7.402,4.058,15.277,4.058,23.31c0,4.142,3.357,7.5,7.5,7.5   s7.5-3.358,7.5-7.5C417.722,343.361,404.51,317.666,382.379,301.798z"/></g><g transform="matrix(0.19354838132858276 0 0 0.19354838132858276 217.5 217.5)" id="L1_370"><path d="M316.693,238.184h19.927c3.258-29.4,25.408-53.167,53.974-58.744l-72.48-113.731   c-3.22,26.409-9.109,71.171-14.765,95.696c-7.791,33.782-36.925,57.376-70.849,57.376c-33.923,0-63.057-23.594-70.849-57.376   c-5.656-24.524-11.545-69.287-14.765-95.696L74.406,179.44c28.566,5.577,50.716,29.343,53.974,58.744h152.307   c4.141,0,7.498,3.356,7.5,7.496h21.007C309.195,241.54,312.552,238.184,316.693,238.184z" fill="#ff9926"/><path d="M286.781,369.166h92.26v-63.028H274.926v39.883c0,4.141-3.356,7.498-7.496,7.5v23.908   C272.32,372.341,279.184,369.166,286.781,369.166z" fill="#fecc33"/><path d="M160.074,298.638c0-4.142,3.358-7.5,7.5-7.5h211.468v-5.606c0-17.837-14.511-32.348-32.348-32.348   h-30c-4.142,0-7.5-3.358-7.5-7.5c0-0.001,0-0.002,0-0.004h-21.007c0,0.001,0,0.002,0,0.004c0,4.142-3.358,7.5-7.5,7.5h-162.38   c-17.837,0-32.348,14.511-32.348,32.348v5.606h51.615c4.142,0,7.5,3.358,7.5,7.5c0,0,0,0.001,0,0.002h15   C160.074,298.639,160.074,298.638,160.074,298.638z" fill="#ff9926"/><path d="M267.43,377.429V353.52c-0.001,0-0.002,0-0.004,0c-4.142,0-7.5-3.358-7.5-7.5v-39.883h-54.853   v39.883c0,4.142-3.358,7.5-7.5,7.5c-0.001,0-0.002,0-0.004,0v23.908c4.641,4.829,7.504,11.381,7.504,18.592V427.5h54.853v-31.479   C259.926,388.809,262.789,382.258,267.43,377.429z" fill="#ff9926"/><path d="M190.074,346.021v-39.883h-22.5c-4.141,0-7.499-3.357-7.5-7.498h-15   c-0.001,4.141-3.359,7.498-7.5,7.498H85.958v63.028h92.26c7.597,0,14.462,3.176,19.351,8.263V353.52   C193.43,353.518,190.074,350.161,190.074,346.021z" fill="#fecc33"/><path d="M187.869,450h2.205v-53.979c0-6.537-5.318-11.855-11.855-11.855H58.108   c-6.537,0-11.855,5.318-11.855,11.855V450h2.205c4.142,0,7.5,3.358,7.5,7.5h15v-40.417c0-4.142,3.358-7.5,7.5-7.5   s7.5,3.358,7.5,7.5V457.5h24.705v-40.417c0-4.142,3.358-7.5,7.5-7.5s7.5,3.358,7.5,7.5V457.5h24.705v-40.417   c0-4.142,3.358-7.5,7.5-7.5s7.5,3.358,7.5,7.5V457.5h15C180.369,453.358,183.727,450,187.869,450z" fill="#fecc33"/><path d="M416.542,450h2.205v-53.979c0-6.537-5.318-11.855-11.855-11.855h-120.11   c-6.537,0-11.855,5.318-11.855,11.855V450h2.205c4.142,0,7.5,3.358,7.5,7.5h15v-40.417c0-4.142,3.358-7.5,7.5-7.5   s7.5,3.358,7.5,7.5V457.5h24.705v-40.417c0-4.142,3.358-7.5,7.5-7.5s7.5,3.358,7.5,7.5V457.5h24.705v-40.417   c0-4.142,3.358-7.5,7.5-7.5s7.5,3.358,7.5,7.5V457.5h15C409.042,453.358,412.399,450,416.542,450z" fill="#fecc33"/><path d="M257.027,44.077c-0.8,3.469-3.887,5.816-7.301,5.816c-0.559,0-1.125-0.063-1.692-0.193   c-3.471-0.801-5.812-3.891-5.809-7.308h-19.449c0.003,3.417-2.339,6.507-5.809,7.308c-4.035,0.93-8.063-1.586-8.994-5.623   c-0.292-1.265-0.585-2.719-0.875-4.292c-21.78,2.24-38.794,6.792-47.073,9.334c2.238,19.289,9.544,79.872,16.243,108.913   c6.311,27.363,28.909,45.748,56.232,45.748c27.324,0,49.922-18.384,56.232-45.748c6.699-29.043,14.003-89.61,16.242-108.907   c-8.298-2.542-25.357-7.103-47.072-9.34C257.612,41.359,257.319,42.812,257.027,44.077z" fill="#fecc33"/><path d="M242.411,40.706c0.616-2.673,1.256-6.399,1.852-10.33c0.001-0.003,0.001-0.007,0.001-0.01   c0.733-4.832,1.401-9.973,1.88-13.858C242.701,15.752,237.912,15,232.5,15c-5.41,0-10.198,0.752-13.645,1.508   c0.869,7.051,2.36,18.243,3.733,24.198c0.13,0.565,0.186,1.129,0.187,1.686h19.449C242.225,41.835,242.281,41.271,242.411,40.706z" fill="#fecc33"/><path d="M78.458,409.583c-4.142,0-7.5,3.358-7.5,7.5V457.5c0,4.142,3.358,7.5,7.5,7.5s7.5-3.358,7.5-7.5v-40.417   C85.958,412.941,82.601,409.583,78.458,409.583z"/><path d="M118.164,409.583c-4.142,0-7.5,3.358-7.5,7.5V457.5c0,4.142,3.358,7.5,7.5,7.5s7.5-3.358,7.5-7.5v-40.417   C125.664,412.941,122.306,409.583,118.164,409.583z"/><path d="M157.869,409.583c-4.142,0-7.5,3.358-7.5,7.5V457.5c0,4.142,3.358,7.5,7.5,7.5s7.5-3.358,7.5-7.5v-40.417   C165.369,412.941,162.011,409.583,157.869,409.583z"/><path d="M406.892,369.166h-12.85v-83.634c0-24.417-18.579-44.573-42.343-47.081c3.523-25.528,25.392-45.252,51.777-45.252   c2.738,0,5.259-1.492,6.576-3.893s1.221-5.329-0.251-7.638L319.443,39.884c-0.182-0.285-0.385-0.548-0.597-0.8   c-0.046-0.055-0.093-0.107-0.141-0.161c-0.247-0.277-0.507-0.538-0.786-0.771c-0.012-0.01-0.026-0.019-0.038-0.029   c-0.29-0.239-0.598-0.45-0.917-0.641c-0.038-0.022-0.073-0.047-0.111-0.069c-0.327-0.188-0.668-0.346-1.017-0.481   c-0.031-0.012-0.059-0.031-0.09-0.043c-0.996-0.373-23.104-8.526-55.56-11.944c0.921-6.87,1.565-12.649,1.616-13.11   c0.378-3.414-1.611-6.647-4.827-7.851C256.54,3.822,246.164,0,232.5,0s-24.04,3.822-24.475,3.984   c-3.216,1.203-5.205,4.437-4.827,7.851c0.051,0.461,0.695,6.24,1.616,13.11c-32.456,3.418-54.564,11.572-55.56,11.944   c-0.03,0.011-0.056,0.029-0.086,0.041c-0.352,0.136-0.694,0.296-1.023,0.485c-0.036,0.021-0.069,0.043-0.104,0.064   c-0.322,0.192-0.632,0.405-0.925,0.646c-0.011,0.009-0.023,0.017-0.033,0.026c-0.28,0.234-0.541,0.495-0.789,0.773   c-0.047,0.053-0.093,0.104-0.139,0.158c-0.212,0.252-0.416,0.515-0.598,0.801L55.199,181.668c-1.472,2.309-1.568,5.237-0.251,7.638   s3.837,3.893,6.576,3.893c26.385,0,48.254,19.723,51.777,45.252c-23.763,2.509-42.343,22.664-42.343,47.081v83.634h-12.85   c-14.808,0-26.855,12.047-26.855,26.855V457.5c0,4.142,3.358,7.5,7.5,7.5h9.705c4.142,0,7.5-3.358,7.5-7.5s-3.358-7.5-7.5-7.5   h-2.205v-53.979c0-6.537,5.318-11.855,11.855-11.855h120.11c6.537,0,11.855,5.318,11.855,11.855V450h-2.205   c-4.142,0-7.5,3.358-7.5,7.5s3.358,7.5,7.5,7.5h9.705c4.142,0,7.5-3.358,7.5-7.5v-30v-31.479c0-7.211-2.862-13.762-7.504-18.592   c-4.89-5.087-11.754-8.263-19.351-8.263h-92.26v-63.028h51.615c4.141,0,7.499-3.357,7.5-7.498c0-0.001,0-0.002,0-0.002   c0-4.143-3.358-7.501-7.5-7.501H85.958v-5.606c0-17.837,14.511-32.348,32.348-32.348h162.38c4.142,0,7.5-3.358,7.5-7.5   c0-0.001,0-0.002,0-0.004c-0.002-4.14-3.359-7.496-7.5-7.496H128.38c-3.258-29.4-25.408-53.167-53.974-58.744l72.48-113.731   c3.22,26.409,9.109,71.171,14.765,95.696c7.792,33.782,36.926,57.376,70.849,57.376c33.923,0,63.058-23.594,70.849-57.376   c5.656-24.524,11.545-69.287,14.765-95.696l72.48,113.731c-28.566,5.577-50.716,29.343-53.974,58.744h-19.927   c-4.141,0-7.498,3.356-7.5,7.496c0,0.001,0,0.002,0,0.004c0,4.142,3.358,7.5,7.5,7.5h30c17.837,0,32.348,14.511,32.348,32.348   v5.606H167.574c-4.142,0-7.5,3.358-7.5,7.5c0,0,0,0.001,0,0.002c0.001,4.141,3.359,7.498,7.5,7.498h22.5v39.883   c0,4.141,3.356,7.498,7.496,7.5c0.001,0,0.002,0,0.004,0c4.142,0,7.5-3.358,7.5-7.5v-39.883h54.853v39.883   c0,4.142,3.358,7.5,7.5,7.5c0.001,0,0.002,0,0.004,0c4.14-0.002,7.496-3.359,7.496-7.5v-39.883h104.115v63.028h-92.26   c-7.597,0-14.462,3.176-19.351,8.263c-4.641,4.829-7.504,11.381-7.504,18.592V427.5v30c0,4.142,3.358,7.5,7.5,7.5h9.705   c4.142,0,7.5-3.358,7.5-7.5s-3.358-7.5-7.5-7.5h-2.205v-53.979c0-6.537,5.318-11.855,11.855-11.855h120.11   c6.537,0,11.855,5.318,11.855,11.855V450h-2.205c-4.142,0-7.5,3.358-7.5,7.5s3.358,7.5,7.5,7.5h9.705c4.142,0,7.5-3.358,7.5-7.5   v-61.479C433.747,381.212,421.7,369.166,406.892,369.166z M288.732,158.033c-6.311,27.363-28.909,45.748-56.232,45.748   c-27.323,0-49.921-18.385-56.232-45.748c-6.698-29.042-14.004-89.624-16.243-108.913c8.278-2.542,25.292-7.095,47.073-9.334   c0.29,1.573,0.583,3.026,0.875,4.292c0.931,4.036,4.958,6.552,8.994,5.623c3.471-0.801,5.812-3.891,5.809-7.308   c0-0.556-0.056-1.121-0.187-1.686c-1.374-5.955-2.864-17.146-3.733-24.198C222.302,15.752,227.09,15,232.5,15   c5.412,0,10.201,0.752,13.645,1.508c-0.479,3.885-1.147,9.026-1.88,13.858c-0.001,0.003-0.001,0.007-0.001,0.01   c-0.596,3.931-1.236,7.657-1.852,10.33c-0.13,0.565-0.186,1.129-0.187,1.686c-0.003,3.417,2.339,6.507,5.809,7.308   c0.567,0.131,1.134,0.193,1.692,0.193c3.414,0,6.501-2.347,7.301-5.816c0.292-1.265,0.585-2.719,0.875-4.291   c21.715,2.237,38.774,6.798,47.072,9.34C302.735,68.423,295.431,128.99,288.732,158.033z"/><path d="M307.131,409.583c-4.142,0-7.5,3.358-7.5,7.5V457.5c0,4.142,3.358,7.5,7.5,7.5s7.5-3.358,7.5-7.5v-40.417   C314.631,412.941,311.273,409.583,307.131,409.583z"/><path d="M346.836,409.583c-4.142,0-7.5,3.358-7.5,7.5V457.5c0,4.142,3.358,7.5,7.5,7.5s7.5-3.358,7.5-7.5v-40.417   C354.336,412.941,350.979,409.583,346.836,409.583z"/><path d="M386.542,409.583c-4.142,0-7.5,3.358-7.5,7.5V457.5c0,4.142,3.358,7.5,7.5,7.5s7.5-3.358,7.5-7.5v-40.417   C394.042,412.941,390.684,409.583,386.542,409.583z"/></g><g transform="matrix(0.186953380161723 0.050094007236602345 -0.050094007236602345 0.186953380161723 318.1801944538049 294.8864810887849)" id="L1_371"><path d="M335.416,302.741c9.892-4.286,18.877-10.267,26.587-17.582   C354.293,292.474,345.308,298.455,335.416,302.741L335.416,302.741z" fill="#0c80e4"/><path d="M15.333,226.363c0.472,5.31,1.444,10.478,2.863,15.459H77.41c-1.294-5-2.172-10.166-2.602-15.459   H15.333z" fill="#00e4c5"/><path d="M79.706,256.822H24.102c2.82,5.532,6.227,10.717,10.154,15.459H91.74   c-3.595-4.981-6.704-10.336-9.25-16C81.629,256.627,80.69,256.822,79.706,256.822z" fill="#00e4c5"/><path d="M97.775,287.282H50.428c13.694,9.726,30.412,15.459,48.45,15.459h30.706   c-9.892-4.286-18.877-10.267-26.587-17.582C101.646,286.471,99.807,287.282,97.775,287.282z" fill="#00e4c5"/><path d="M77.41,241.822h2.295c4.142,0,7.5,3.358,7.5,7.5c0,3.157-1.953,5.854-4.715,6.96   c2.546,5.664,5.654,11.019,9.25,16h6.035c4.142,0,7.5,3.358,7.5,7.5c0,2.111-0.875,4.015-2.278,5.377   c7.71,7.315,16.695,13.296,26.587,17.582h28.596v-76.378H74.808C75.238,231.656,76.117,236.823,77.41,241.822z" fill="#fecc33"/><path d="M306.82,226.363v76.378h28.596c9.892-4.286,18.877-10.267,26.587-17.582   c-1.403-1.363-2.278-3.267-2.278-5.377c0-4.142,3.358-7.5,7.5-7.5h6.035c3.595-4.981,6.704-10.336,9.25-16   c-2.762-1.106-4.715-3.803-4.715-6.96c0-4.142,3.358-7.5,7.5-7.5h2.295c1.294-5,2.172-10.166,2.602-15.459H306.82z" fill="#fecc33"/><path d="M366.122,302.741c18.038,0,34.756-5.734,48.45-15.459h-47.347c-2.031,0-3.871-0.811-5.222-2.123   c-7.71,7.315-16.695,13.296-26.587,17.582H366.122z" fill="#00e4c5"/><path d="M390.192,226.363c-0.43,5.293-1.308,10.459-2.602,15.459h59.215   c1.419-4.981,2.391-10.149,2.863-15.459H390.192z" fill="#00e4c5"/><path d="M430.744,272.282c3.927-4.742,7.334-9.927,10.154-15.459h-55.603c-0.985,0-1.923-0.195-2.785-0.54   c-2.546,5.664-5.654,11.019-9.25,16H430.744z" fill="#00e4c5"/><path d="M270.193,197.236h-6.556c-4.142,0-7.5-3.358-7.5-7.5c0-13.034-10.604-23.638-23.637-23.638   c-10.412,0-19.267,6.77-22.411,16.138h23.548c4.142,0,7.5,3.358,7.5,7.5s-3.358,7.5-7.5,7.5h-32.275h-6.556   c-11.925,0-21.627,9.702-21.627,21.627c0,11.925,9.702,21.626,21.627,21.626h17.704c7.642,0,14.758,3.034,19.989,8.133   c5.231-5.099,12.347-8.133,19.989-8.133h17.705c11.925,0,21.627-9.702,21.627-21.626   C291.82,206.938,282.119,197.236,270.193,197.236z" fill="#0c80e4"/><path d="M252.489,255.49c-5.45,0-10.336,3.242-12.489,8.172v105.409c29.179-3.7,51.82-28.662,51.82-58.83   v-61.843c-6.065,4.453-13.542,7.091-21.627,7.091H252.489z" fill="#0c80e4"/><path d="M212.511,255.49h-17.704c-8.084,0-15.562-2.638-21.627-7.091v61.843   c0,30.167,22.641,55.129,51.82,58.83V263.662C222.847,258.731,217.961,255.49,212.511,255.49z" fill="#00e4c5"/><path d="M457.5,211.363H336.82v-18.897c0-32.293-14.645-62.262-40.18-82.223c-3.265-2.552-7.977-1.974-10.528,1.29   c-2.551,3.264-1.974,7.977,1.29,10.528c21.874,17.098,34.418,42.76,34.418,70.405v18.897h-15.776   c-3.457-16.543-18.107-29.026-35.638-29.126c-3.501-17.728-19.167-31.138-37.907-31.138s-34.406,13.411-37.907,31.138   c-17.531,0.101-32.181,12.583-35.638,29.126H143.18v-18.897c0-27.646,12.544-53.308,34.417-70.405   c3.263-2.551,3.841-7.264,1.29-10.528c-2.55-3.263-7.262-3.841-10.528-1.29c-25.534,19.96-40.179,49.929-40.179,82.223v18.897H7.5   c-4.142,0-7.5,3.358-7.5,7.5c0,54.521,44.356,98.878,98.878,98.878h29.582c2.997,42.117,31.046,78.409,71.708,91.693   c0.774,0.252,1.559,0.373,2.331,0.373c3.157,0,6.094-2.009,7.128-5.173c1.286-3.938-0.863-8.172-4.8-9.458   c-34.474-11.262-58.367-41.831-61.331-77.434h15.061c3.772,37.471,35.494,66.82,73.943,66.82s70.17-29.349,73.943-66.82h15.061   c-2.964,35.603-26.857,66.172-61.331,77.434c-3.937,1.287-6.086,5.521-4.8,9.458c1.034,3.164,3.971,5.173,7.128,5.173   c0.771,0,1.557-0.12,2.331-0.373c40.663-13.284,68.711-49.576,71.709-91.693h29.582c54.521,0,98.878-44.356,98.878-98.878   C465,214.721,461.642,211.363,457.5,211.363z M158.18,302.741h-28.596h0H98.878c-18.038,0-34.756-5.734-48.45-15.459h47.347   c2.031,0,3.871-0.811,5.222-2.123c1.403-1.363,2.278-3.267,2.278-5.377c0-4.142-3.358-7.5-7.5-7.5H91.74H34.256   c-3.927-4.742-7.334-9.927-10.154-15.459h55.603c0.985,0,1.923-0.195,2.785-0.54c2.762-1.106,4.715-3.803,4.715-6.96   c0-4.142-3.358-7.5-7.5-7.5H77.41H18.196c-1.419-4.981-2.391-10.149-2.863-15.459h59.476h83.371V302.741z M225,369.071   c-29.179-3.7-51.82-28.662-51.82-58.83v-61.843c6.065,4.453,13.542,7.091,21.627,7.091h17.704c5.45,0,10.336,3.242,12.489,8.172   V369.071z M291.82,310.241c0,30.167-22.641,55.129-51.82,58.83V263.662c2.153-4.93,7.039-8.172,12.489-8.172h17.705   c8.084,0,15.562-2.638,21.627-7.091V310.241z M270.193,240.49h-17.705c-7.642,0-14.757,3.034-19.989,8.133   c-5.231-5.099-12.347-8.133-19.989-8.133h-17.704c-11.925,0-21.627-9.702-21.627-21.626c0-11.925,9.702-21.627,21.627-21.627h6.556   h32.275c4.142,0,7.5-3.358,7.5-7.5s-3.358-7.5-7.5-7.5h-23.548c3.143-9.367,11.999-16.138,22.411-16.138   c13.034,0,23.637,10.604,23.637,23.638c0,4.142,3.358,7.5,7.5,7.5h6.556c11.925,0,21.627,9.702,21.627,21.627   C291.82,230.788,282.119,240.49,270.193,240.49z M446.804,241.822H387.59h-2.295c-4.142,0-7.5,3.358-7.5,7.5   c0,3.157,1.953,5.854,4.715,6.96c0.862,0.345,1.8,0.54,2.785,0.54h55.603c-2.82,5.532-6.227,10.717-10.154,15.459H373.26h-6.035   c-4.142,0-7.5,3.358-7.5,7.5c0,2.111,0.875,4.015,2.278,5.377c1.351,1.312,3.19,2.123,5.222,2.123h47.347   c-13.694,9.726-30.412,15.459-48.45,15.459h-30.706h0H306.82v-76.378h83.371h59.476   C449.195,231.673,448.224,236.841,446.804,241.822z"/><path d="M232.5,121.099c14.034,0,25.452-11.418,25.452-25.453S246.534,70.193,232.5,70.193   c-14.035,0-25.453,11.418-25.453,25.453S218.465,121.099,232.5,121.099z" fill="#e43017"/><path d="M232.5,136.099c22.305,0,40.452-18.147,40.452-40.453S254.805,55.193,232.5,55.193c-22.306,0-40.453,18.147-40.453,40.453   S210.194,136.099,232.5,136.099z M232.5,70.193c14.034,0,25.452,11.418,25.452,25.453s-11.418,25.453-25.452,25.453   c-14.035,0-25.453-11.418-25.453-25.453S218.465,70.193,232.5,70.193z"/></g></defs><g fi:class="KUsePattern"><pattern id="pattern_L1_362" width="350" height="350" patternUnits="userSpaceOnUse"><use xlink:href="#L1_362" x="-350" y="-350"/><use xlink:href="#L1_362" x="0" y="-350"/><use xlink:href="#L1_362" x="350" y="-350"/><use xlink:href="#L1_362" x="-350" y="0"/><use xlink:href="#L1_362" x="0" y="0"/><use xlink:href="#L1_362" x="350" y="0"/><use xlink:href="#L1_362" x="-350" y="350"/><use xlink:href="#L1_362" x="0" y="350"/><use xlink:href="#L1_362" x="350" y="350"/></pattern><rect x="0" y="0" width="100%" height="100%" fill="url(#pattern_L1_362)"/></g><g fi:class="KUsePattern"><pattern id="pattern_L1_363" width="350" height="350" patternUnits="userSpaceOnUse"><use xlink:href="#L1_363" x="-350" y="-350"/><use xlink:href="#L1_363" x="0" y="-350"/><use xlink:href="#L1_363" x="350" y="-350"/><use xlink:href="#L1_363" x="-350" y="0"/><use xlink:href="#L1_363" x="0" y="0"/><use xlink:href="#L1_363" x="350" y="0"/><use xlink:href="#L1_363" x="-350" y="350"/><use xlink:href="#L1_363" x="0" y="350"/><use xlink:href="#L1_363" x="350" y="350"/></pattern><rect x="0" y="0" width="100%" height="100%" fill="url(#pattern_L1_363)"/></g><g fi:class="KUsePattern"><pattern id="pattern_L1_364" width="350" height="350" patternUnits="userSpaceOnUse"><use xlink:href="#L1_364" x="-350" y="-350"/><use xlink:href="#L1_364" x="0" y="-350"/><use xlink:href="#L1_364" x="350" y="-350"/><use xlink:href="#L1_364" x="-350" y="0"/><use xlink:href="#L1_364" x="0" y="0"/><use xlink:href="#L1_364" x="350" y="0"/><use xlink:href="#L1_364" x="-350" y="350"/><use xlink:href="#L1_364" x="0" y="350"/><use xlink:href="#L1_364" x="350" y="350"/></pattern><rect x="0" y="0" width="100%" height="100%" fill="url(#pattern_L1_364)"/></g><g fi:class="KUsePattern"><pattern id="pattern_L1_365" width="350" height="350" patternUnits="userSpaceOnUse"><use xlink:href="#L1_365" x="-350" y="-350"/><use xlink:href="#L1_365" x="0" y="-350"/><use xlink:href="#L1_365" x="350" y="-350"/><use xlink:href="#L1_365" x="-350" y="0"/><use xlink:href="#L1_365" x="0" y="0"/><use xlink:href="#L1_365" x="350" y="0"/><use xlink:href="#L1_365" x="-350" y="350"/><use xlink:href="#L1_365" x="0" y="350"/><use xlink:href="#L1_365" x="350" y="350"/></pattern><rect x="0" y="0" width="100%" height="100%" fill="url(#pattern_L1_365)"/></g><g fi:class="KUsePattern"><pattern id="pattern_L1_366" width="350" height="350" patternUnits="userSpaceOnUse"><use xlink:href="#L1_366" x="-350" y="-350"/><use xlink:href="#L1_366" x="0" y="-350"/><use xlink:href="#L1_366" x="350" y="-350"/><use xlink:href="#L1_366" x="-350" y="0"/><use xlink:href="#L1_366" x="0" y="0"/><use xlink:href="#L1_366" x="350" y="0"/><use xlink:href="#L1_366" x="-350" y="350"/><use xlink:href="#L1_366" x="0" y="350"/><use xlink:href="#L1_366" x="350" y="350"/></pattern><rect x="0" y="0" width="100%" height="100%" fill="url(#pattern_L1_366)"/></g><g fi:class="KUsePattern"><pattern id="pattern_L1_367" width="350" height="350" patternUnits="userSpaceOnUse"><use xlink:href="#L1_367" x="-350" y="-350"/><use xlink:href="#L1_367" x="0" y="-350"/><use xlink:href="#L1_367" x="350" y="-350"/><use xlink:href="#L1_367" x="-350" y="0"/><use xlink:href="#L1_367" x="0" y="0"/><use xlink:href="#L1_367" x="350" y="0"/><use xlink:href="#L1_367" x="-350" y="350"/><use xlink:href="#L1_367" x="0" y="350"/><use xlink:href="#L1_367" x="350" y="350"/></pattern><rect x="0" y="0" width="100%" height="100%" fill="url(#pattern_L1_367)"/></g><g fi:class="KUsePattern"><pattern id="pattern_L1_368" width="350" height="350" patternUnits="userSpaceOnUse"><use xlink:href="#L1_368" x="-350" y="-350"/><use xlink:href="#L1_368" x="0" y="-350"/><use xlink:href="#L1_368" x="350" y="-350"/><use xlink:href="#L1_368" x="-350" y="0"/><use xlink:href="#L1_368" x="0" y="0"/><use xlink:href="#L1_368" x="350" y="0"/><use xlink:href="#L1_368" x="-350" y="350"/><use xlink:href="#L1_368" x="0" y="350"/><use xlink:href="#L1_368" x="350" y="350"/></pattern><rect x="0" y="0" width="100%" height="100%" fill="url(#pattern_L1_368)"/></g><g fi:class="KUsePattern"><pattern id="pattern_L1_369" width="350" height="350" patternUnits="userSpaceOnUse"><use xlink:href="#L1_369" x="-350" y="-350"/><use xlink:href="#L1_369" x="0" y="-350"/><use xlink:href="#L1_369" x="350" y="-350"/><use xlink:href="#L1_369" x="-350" y="0"/><use xlink:href="#L1_369" x="0" y="0"/><use xlink:href="#L1_369" x="350" y="0"/><use xlink:href="#L1_369" x="-350" y="350"/><use xlink:href="#L1_369" x="0" y="350"/><use xlink:href="#L1_369" x="350" y="350"/></pattern><rect x="0" y="0" width="100%" height="100%" fill="url(#pattern_L1_369)"/></g><g fi:class="KUsePattern"><pattern id="pattern_L1_370" width="350" height="350" patternUnits="userSpaceOnUse"><use xlink:href="#L1_370" x="-350" y="-350"/><use xlink:href="#L1_370" x="0" y="-350"/><use xlink:href="#L1_370" x="350" y="-350"/><use xlink:href="#L1_370" x="-350" y="0"/><use xlink:href="#L1_370" x="0" y="0"/><use xlink:href="#L1_370" x="350" y="0"/><use xlink:href="#L1_370" x="-350" y="350"/><use xlink:href="#L1_370" x="0" y="350"/><use xlink:href="#L1_370" x="350" y="350"/></pattern><rect x="0" y="0" width="100%" height="100%" fill="url(#pattern_L1_370)"/></g><g fi:class="KUsePattern"><pattern id="pattern_L1_371" width="350" height="350" patternUnits="userSpaceOnUse"><use xlink:href="#L1_371" x="-350" y="-350"/><use xlink:href="#L1_371" x="0" y="-350"/><use xlink:href="#L1_371" x="350" y="-350"/><use xlink:href="#L1_371" x="-350" y="0"/><use xlink:href="#L1_371" x="0" y="0"/><use xlink:href="#L1_371" x="350" y="0"/><use xlink:href="#L1_371" x="-350" y="350"/><use xlink:href="#L1_371" x="0" y="350"/><use xlink:href="#L1_371" x="350" y="350"/></pattern><rect x="0" y="0" width="100%" height="100%" fill="url(#pattern_L1_371)"/></g></svg>