<svg xmlns="http://www.w3.org/2000/svg" xmlns:xlink="http://www.w3.org/1999/xlink" xmlns:fi="http://pattern.flaticon.com/" x="0" y="0" width="700" height="350" viewBox="0 0 700 350"><rect x="0px" y="0px" width="100%" height="100%" opacity="1" fill="#223438"/><defs><g transform="matrix(0.14893648028373718 0 0 0.14893648028373718 315 315)" id="L1_46"><path d="M318.617,122.163c-1.462-11.178-6.487-21.236-14.551-28.865   c-10.99-10.397-27.033-16.033-46.396-16.296c-25.799-0.355-53.205,6.39-75.173,18.495c-14.792,8.152-25.339,17.812-29.539,26.667   H318.617z" fill="#d6b8a4"/><rect x="352px" y="325px" width="102px" height="67px" fill="#ffcb59"/><rect x="352px" y="137px" width="102px" height="173px" fill="#855538"/><path d="M462.499,122.163H333.706c-1.543-15.364-8.246-29.273-19.331-39.761   c-13.771-13.029-33.309-20.083-56.499-20.399c-28.338-0.369-58.44,7.034-82.618,20.357c-20.962,11.552-34.445,25.716-38.227,39.804   H7.5c-4.142,0-7.5,3.358-7.5,7.5v270.846c0,4.142,3.358,7.5,7.5,7.5h454.999c4.143,0,7.5-3.358,7.5-7.5V129.663   C469.999,125.521,466.641,122.163,462.499,122.163z M182.498,95.497c21.968-12.105,49.374-18.85,75.173-18.495   c19.362,0.264,35.405,5.899,46.396,16.296c8.064,7.629,13.089,17.687,14.551,28.865H152.958   C157.158,113.308,167.706,103.648,182.498,95.497z M454.999,310.5H352.207V137.163h102.792V310.5z M15,325.5h52.5   c4.141,0,7.498-3.356,7.5-7.496c0-0.001,0-0.002,0-0.004c0-4.142-3.358-7.5-7.5-7.5H15V137.163h322.203V310.5H97.5   c-4.142,0-7.5,3.358-7.5,7.5c0,0.001,0,0.002,0,0.004c0.002,4.14,3.359,7.496,7.5,7.496h239.703v67.51H15V325.5z M352.207,393.009   V325.5h102.792v67.51H352.207z" fill="#3d2a20"/><path d="M337.203,325.5H97.5c-4.141,0-7.498-3.356-7.5-7.496H75c-0.002,4.14-3.359,7.496-7.5,7.496H15v67.51   h322.203V325.5z" fill="#ffd77d"/><path d="M90,318c0-4.142,3.358-7.5,7.5-7.5h239.703V137.163H15V310.5h52.5c4.142,0,7.5,3.358,7.5,7.5   c0,0.001,0,0.002,0,0.004h15C90,318.002,90,318.001,90,318z" fill="#a67b60"/></g><g transform="matrix(0.10638298094272614 0 0 0.10638298094272614 150 325)" id="L1_47"><path d="M235,300.237c96.181,0,174.872-76.259,178.819-171.487h-10.001   c-1.643,36.631-15.271,72.002-38.797,100.325c-1.483,1.786-3.621,2.708-5.773,2.708c-1.689,0-3.388-0.567-4.788-1.73   c-0.044-0.037-0.083-0.078-0.126-0.116c-3.381,3.709-6.932,7.26-10.641,10.642c0.038,0.043,0.079,0.081,0.116,0.126   c2.646,3.187,2.209,7.915-0.977,10.563c-30.252,25.131-68.547,38.971-107.831,38.971c-90.666,0-164.873-71.775-168.812-161.487   H56.181C60.128,223.979,138.819,300.237,235,300.237z" fill="#ffffff"/><path d="M354.333,229.937c-3.066-2.666-3.46-7.303-0.851-10.445c21.293-25.636,33.683-57.606,35.314-90.741   H81.198C85.123,210.189,152.605,275.237,235,275.237c35.79,0,70.682-12.61,98.245-35.509c3.144-2.612,7.781-2.216,10.447,0.85   C347.401,237.197,350.952,233.646,354.333,229.937z M134.483,179.982c-1.465,1.464-3.385,2.196-5.304,2.196   s-3.839-0.732-5.304-2.196l-5.512-5.512c-2.929-2.93-2.929-7.678,0-10.607c2.93-2.928,7.678-2.928,10.607,0l5.512,5.512   C137.412,172.305,137.412,177.053,134.483,179.982z M160.538,157.877c0,4.143-3.357,7.5-7.5,7.5s-7.5-3.357-7.5-7.5v-7.795   c0-4.143,3.357-7.5,7.5-7.5s7.5,3.357,7.5,7.5V157.877z M196.891,204.293h-7.794c-4.143,0-7.5-3.357-7.5-7.5s3.357-7.5,7.5-7.5   h7.794c4.143,0,7.5,3.357,7.5,7.5S201.033,204.293,196.891,204.293z M214.612,158.527c-2.929-2.93-2.929-7.678,0-10.607   c2.93-2.928,7.678-2.928,10.607,0l5.512,5.512c2.929,2.93,2.929,7.678,0,10.607c-1.465,1.464-3.385,2.196-5.304,2.196   s-3.839-0.732-5.304-2.196L214.612,158.527z M240.303,248.324l-5.512,5.512c-1.465,1.464-3.385,2.196-5.304,2.196   s-3.839-0.732-5.304-2.196c-2.929-2.93-2.929-7.678,0-10.607l5.512-5.512c2.93-2.928,7.678-2.928,10.607,0   C243.231,240.646,243.231,245.395,240.303,248.324z M286.391,206.065c0,4.143-3.357,7.5-7.5,7.5s-7.5-3.357-7.5-7.5v-7.795   c0-4.143,3.357-7.5,7.5-7.5s7.5,3.357,7.5,7.5V206.065z M310.194,185.715l-5.512,5.512c-1.465,1.464-3.385,2.196-5.304,2.196   s-3.839-0.732-5.304-2.196c-2.929-2.93-2.929-7.678,0-10.607l5.512-5.512c2.93-2.928,7.678-2.928,10.607,0   C313.123,178.037,313.123,182.785,310.194,185.715z M344.192,143.107c2.929-2.928,7.678-2.929,10.606,0.001l5.511,5.512   c2.929,2.929,2.929,7.678-0.001,10.606c-1.464,1.464-3.384,2.196-5.303,2.196c-1.92,0-3.839-0.732-5.304-2.197l-5.511-5.512   C341.263,150.785,341.263,146.036,344.192,143.107z" fill="#a3e175"/><path d="M454.874,128.75h-26.045C424.872,232.251,339.452,315.237,235,315.237S45.128,232.251,41.172,128.75   H15.126C19.094,246.6,116.201,341.25,235,341.25S450.906,246.6,454.874,128.75z M429.058,162.025c0-4.143,3.357-7.5,7.5-7.5   s7.5,3.357,7.5,7.5v7.795c0,4.143-3.357,7.5-7.5,7.5s-7.5-3.357-7.5-7.5V162.025z M78.581,255.546   c-1.464,1.465-3.385,2.197-5.304,2.197s-3.838-0.731-5.303-2.196l-5.512-5.511c-2.93-2.929-2.93-7.678-0.001-10.606   c2.928-2.93,7.677-2.931,10.606-0.001l5.512,5.511C81.51,247.868,81.51,252.617,78.581,255.546z M370.065,287.305l-5.511,5.512   c-1.464,1.465-3.385,2.197-5.304,2.197s-3.838-0.731-5.303-2.196c-2.93-2.929-2.93-7.678-0.001-10.606l5.511-5.512   c2.928-2.93,7.677-2.931,10.606-0.001C372.994,279.627,372.994,284.376,370.065,287.305z" fill="#66cd19"/><path d="M462.5,113.75H7.5c-4.143,0-7.5,3.357-7.5,7.5c0,62.771,24.444,121.784,68.83,166.17   S172.229,356.25,235,356.25s121.784-24.444,166.17-68.83S470,184.021,470,121.25C470,117.107,466.643,113.75,462.5,113.75z    M15.126,128.75h26.046C45.128,232.251,130.548,315.237,235,315.237s189.872-82.986,193.829-186.487h26.045   C450.906,246.6,353.799,341.25,235,341.25S19.094,246.6,15.126,128.75z M235,290.237c39.284,0,77.579-13.84,107.831-38.971   c3.186-2.647,3.623-7.376,0.977-10.563c-0.037-0.044-0.078-0.083-0.116-0.126c-2.666-3.066-7.303-3.461-10.447-0.85   c-27.563,22.898-62.455,35.509-98.245,35.509c-82.395,0-149.877-65.048-153.802-146.487h307.598   c-1.631,33.135-14.021,65.106-35.314,90.741c-2.609,3.142-2.215,7.779,0.851,10.445c0.043,0.038,0.082,0.079,0.126,0.116   c1.4,1.163,3.099,1.73,4.788,1.73c2.152,0,4.29-0.922,5.773-2.708c23.526-28.323,37.155-63.694,38.797-100.325h10.001   C409.872,223.979,331.181,300.237,235,300.237S60.128,223.979,56.181,128.75h10.007C70.127,218.462,144.334,290.237,235,290.237z" fill="#3d2a20"/><path d="M128.972,163.863c-2.93-2.928-7.678-2.928-10.607,0c-2.929,2.93-2.929,7.678,0,10.607l5.512,5.512   c1.465,1.464,3.385,2.196,5.304,2.196s3.839-0.732,5.304-2.196c2.929-2.93,2.929-7.678,0-10.607L128.972,163.863z" fill="#ffffff"/><path d="M196.891,189.293h-7.794c-4.143,0-7.5,3.357-7.5,7.5s3.357,7.5,7.5,7.5h7.794   c4.143,0,7.5-3.357,7.5-7.5S201.033,189.293,196.891,189.293z" fill="#ffffff"/><path d="M278.891,190.771c-4.143,0-7.5,3.357-7.5,7.5v7.795c0,4.143,3.357,7.5,7.5,7.5s7.5-3.357,7.5-7.5   v-7.795C286.391,194.128,283.033,190.771,278.891,190.771z" fill="#ffffff"/><path d="M229.695,237.717l-5.512,5.512c-2.929,2.93-2.929,7.678,0,10.607   c1.465,1.464,3.385,2.196,5.304,2.196s3.839-0.732,5.304-2.196l5.512-5.512c2.929-2.93,2.929-7.678,0-10.607   C237.373,234.789,232.625,234.789,229.695,237.717z" fill="#ffffff"/><path d="M230.731,164.039c2.929-2.93,2.929-7.678,0-10.607l-5.512-5.512c-2.93-2.928-7.678-2.928-10.607,0   c-2.929,2.93-2.929,7.678,0,10.607l5.512,5.512c1.465,1.464,3.385,2.196,5.304,2.196S229.267,165.503,230.731,164.039z" fill="#ffffff"/><path d="M359.458,276.699l-5.511,5.512c-2.929,2.929-2.929,7.678,0.001,10.606   c1.465,1.465,3.384,2.196,5.303,2.196s3.84-0.732,5.304-2.197l5.511-5.512c2.929-2.929,2.929-7.678-0.001-10.606   C367.135,273.769,362.386,273.77,359.458,276.699z" fill="#ffffff"/><path d="M153.038,142.582c-4.143,0-7.5,3.357-7.5,7.5v7.795c0,4.143,3.357,7.5,7.5,7.5s7.5-3.357,7.5-7.5   v-7.795C160.538,145.939,157.181,142.582,153.038,142.582z" fill="#ffffff"/><path d="M73.068,239.429c-2.93-2.93-7.679-2.929-10.606,0.001c-2.929,2.929-2.929,7.678,0.001,10.606   l5.512,5.511c1.465,1.465,3.384,2.196,5.303,2.196s3.84-0.732,5.304-2.197c2.929-2.929,2.929-7.678-0.001-10.606L73.068,239.429z" fill="#ffffff"/><path d="M299.587,175.107l-5.512,5.512c-2.929,2.93-2.929,7.678,0,10.607   c1.465,1.464,3.385,2.196,5.304,2.196s3.839-0.732,5.304-2.196l5.512-5.512c2.929-2.93,2.929-7.678,0-10.607   C307.265,172.18,302.517,172.18,299.587,175.107z" fill="#ffffff"/><path d="M355.006,161.423c1.919,0,3.839-0.732,5.303-2.196c2.93-2.929,2.93-7.678,0.001-10.606l-5.511-5.512   c-2.929-2.93-7.678-2.929-10.606-0.001c-2.93,2.929-2.93,7.678-0.001,10.606l5.511,5.512   C351.167,160.69,353.086,161.423,355.006,161.423z" fill="#ffffff"/><path d="M436.558,177.32c4.143,0,7.5-3.357,7.5-7.5v-7.795c0-4.143-3.357-7.5-7.5-7.5s-7.5,3.357-7.5,7.5   v7.795C429.058,173.963,432.415,177.32,436.558,177.32z" fill="#ffffff"/></g><g transform="matrix(0.1063886359333992 0 0 0.1063886359333992 237.5 150)" id="L1_48"><path d="M22.842,401.074c3.098,3.472,6.416,5.484,10.514,7.967c3.103,1.88,6.484,3.933,10.125,6.826   l75.298-75.298L22.842,401.074z" fill="#e7453f"/><path d="M54.088,426.475c2.893,3.642,4.946,7.023,6.826,10.125c2.484,4.098,4.496,7.416,7.968,10.514   l60.504-95.938L54.088,426.475z" fill="#e7453f"/><path d="M446.594,23.362c-13.94-13.939-46.159-10.54-88.397,9.327   c-42.698,20.083-89.749,54.166-129.09,93.507c-14.351,14.35-28.175,30.307-41.089,47.427c-2.495,3.306-7.197,3.967-10.504,1.471   c-3.307-2.494-3.965-7.197-1.471-10.504c13.332-17.674,27.617-34.16,42.458-49c22.461-22.461,47.403-43.271,72.702-60.905   l-18.746-11.743c-23.522,19.059-46.326,41.131-66.198,64.095c-26.397,30.505-50.37,67.474-67.633,104.274l0.243,10.655   c5.921-10.836,12.459-21.702,19.583-32.492c2.283-3.457,6.936-4.408,10.391-2.126c3.457,2.282,4.409,6.934,2.127,10.391   c-23.209,35.155-40.019,70.98-48.613,103.603c-0.509,1.934-1.771,3.584-3.502,4.584l-90.23,52.095   c-10.632,6.139-15.55,18.418-12.879,29.797L132.316,314.3c2.964-1.868,6.826-1.438,9.304,1.041l12.996,12.996   c2.478,2.478,2.91,6.34,1.041,9.304L82.132,454.224c4.328,1.025,8.867,0.971,13.283-0.213c7.02-1.881,12.888-6.383,16.521-12.677   l52.095-90.23c1-1.732,2.65-2.993,4.584-3.502c57.276-15.089,124.388-55.993,175.145-106.751   c13.271-13.271,26.101-27.6,38.134-42.586c2.593-3.23,7.314-3.746,10.544-1.152c3.229,2.593,3.746,7.314,1.152,10.544   c-9.913,12.346-20.361,24.249-31.144,35.522c11.755-2.055,23.697-8.372,33.496-18.118c13.323-13.251,20.174-30.714,18.889-45.741   c-0.951,1.361-1.895,2.722-2.866,4.082c-1.463,2.051-3.77,3.144-6.111,3.144c-1.508,0-3.029-0.453-4.35-1.396   c-3.372-2.406-4.155-7.09-1.749-10.461C448.343,106.599,467.604,44.372,446.594,23.362z M211.727,247.622   c-4.25,4.25-9.9,6.59-15.91,6.59s-11.66-2.34-15.91-6.59c-4.25-4.249-6.59-9.899-6.59-15.91c0-6.01,2.34-11.66,6.59-15.91   c2.929-2.929,7.678-2.929,10.606,0c2.929,2.929,2.929,7.678,0,10.606c-1.417,1.417-2.197,3.3-2.197,5.303   c0,2.003,0.78,3.887,2.197,5.303c1.417,1.417,3.3,2.197,5.303,2.197s3.887-0.78,5.303-2.197c2.929-2.929,7.678-2.929,10.606,0   C214.656,239.944,214.656,244.693,211.727,247.622z M261.225,240.551c-4.25,4.25-9.9,6.59-15.91,6.59   c-6.01,0-11.661-2.341-15.91-6.59s-6.59-9.9-6.59-15.91c0-6.01,2.34-11.66,6.59-15.91c2.929-2.929,7.678-2.929,10.606,0   c2.929,2.929,2.929,7.678,0,10.606c-1.417,1.417-2.197,3.3-2.197,5.303c0,2.003,0.78,3.887,2.197,5.304s3.3,2.197,5.303,2.197   c2.003,0,3.887-0.78,5.303-2.197c2.929-2.929,7.678-2.929,10.606,0C264.154,232.873,264.154,237.622,261.225,240.551z    M268.296,191.053c-4.386,4.387-10.148,6.58-15.91,6.58c-5.762,0-11.523-2.193-15.91-6.58c-8.773-8.773-8.773-23.047,0-31.82   c2.929-2.929,7.678-2.929,10.606,0c2.929,2.929,2.929,7.678,0,10.606c-1.417,1.417-2.197,3.3-2.197,5.303   c0,2.003,0.78,3.887,2.197,5.304s3.3,2.197,5.304,2.197c2.003,0,3.887-0.78,5.303-2.197c2.929-2.929,7.678-2.929,10.606,0   C271.225,183.376,271.225,188.125,268.296,191.053z M324.958,86.2c-20.618,13.749-41.44,30.136-60.216,47.391   c-1.44,1.324-3.259,1.978-5.073,1.978c-2.026,0-4.045-0.816-5.524-2.425c-2.803-3.05-2.603-7.794,0.448-10.597   c19.337-17.771,40.791-34.654,62.043-48.826c3.447-2.297,8.103-1.367,10.401,2.079C329.335,79.245,328.404,83.902,324.958,86.2z    M367.291,176.911c-4.25,4.25-9.9,6.59-15.91,6.59s-11.66-2.34-15.91-6.59c-8.773-8.773-8.773-23.047,0-31.82   c2.929-2.929,7.678-2.929,10.606,0c2.929,2.929,2.929,7.678,0,10.606c-1.417,1.417-2.197,3.3-2.197,5.303   c0,2.003,0.78,3.887,2.197,5.304s3.3,2.197,5.303,2.197s3.887-0.78,5.303-2.197c2.929-2.929,7.678-2.929,10.606,0   C370.22,169.234,370.22,173.983,367.291,176.911z M412.747,126.43c-1.231,2.819-3.986,4.502-6.878,4.502   c-1.002,0-2.02-0.202-2.996-0.628c-14.041-6.128-26.682-14.757-37.573-25.648c-10.889-10.889-19.517-23.527-25.645-37.564   c-1.657-3.796,0.077-8.217,3.873-9.874c3.798-1.656,8.217,0.077,9.874,3.873c5.375,12.312,12.946,23.401,22.504,32.959   c9.56,9.56,20.651,17.132,32.966,22.507C412.67,118.214,414.404,122.634,412.747,126.43z M421.598,44.907   c-6.371,0-20.719,1.62-45.237,12.467c-0.986,0.437-2.017,0.643-3.03,0.643c-2.878,0-5.623-1.666-6.863-4.468   c-1.676-3.788,0.037-8.217,3.825-9.893c27.04-11.963,43.751-13.749,51.306-13.749c4.142,0,7.5,3.358,7.5,7.5   S425.74,44.907,421.598,44.907z" fill="#e7453f"/><path d="M255.766,326.673c8.468,1.19,18.676-1.646,27.116-8.258c6.229-4.879,10.746-11.142,13.024-17.553   C282.801,310.246,269.332,318.904,255.766,326.673z" fill="#e7453f"/><path d="M408.873,116.556c-12.315-5.375-23.407-12.947-32.966-22.507   c-9.558-9.558-17.129-20.647-22.504-32.959c-1.657-3.796-6.076-5.529-9.874-3.873c-3.796,1.657-5.53,6.078-3.873,9.874   c6.128,14.037,14.756,26.676,25.645,37.564c10.891,10.891,23.532,19.52,37.573,25.648c0.977,0.426,1.994,0.628,2.996,0.628   c2.892,0,5.647-1.683,6.878-4.502C414.404,122.634,412.67,118.214,408.873,116.556z" fill="#96362f"/><path d="M154.616,328.336L141.62,315.34c-2.478-2.478-6.34-2.909-9.304-1.041L15.744,387.817   c0.593,2.527,1.556,5.011,2.92,7.372c1.382,2.394,2.757,4.293,4.178,5.886l95.938-60.504l-75.298,75.298   c1.805,1.434,3.672,3.071,5.604,5.003c1.932,1.932,3.569,3.799,5.003,5.604l75.298-75.298l-60.504,95.938   c1.593,1.421,3.492,2.796,5.886,4.178c2.335,1.348,4.813,2.327,7.364,2.932l73.524-116.583   C157.526,334.677,157.093,330.814,154.616,328.336z" fill="#96362f"/><path d="M201.121,237.015c-1.417,1.417-3.3,2.197-5.303,2.197s-3.887-0.78-5.303-2.197   c-1.417-1.416-2.197-3.299-2.197-5.303c0-2.003,0.78-3.887,2.197-5.303c2.929-2.929,2.929-7.678,0-10.606   c-2.929-2.929-7.678-2.929-10.606,0c-4.25,4.25-6.59,9.9-6.59,15.91c0,6.01,2.341,11.661,6.59,15.91c4.25,4.25,9.9,6.59,15.91,6.59   s11.66-2.34,15.91-6.59c2.929-2.929,2.929-7.678,0-10.606C208.798,234.087,204.049,234.087,201.121,237.015z" fill="#96362f"/><path d="M356.684,166.305c-1.417,1.417-3.3,2.197-5.303,2.197s-3.887-0.78-5.303-2.197   s-2.197-3.3-2.197-5.304c0-2.003,0.78-3.887,2.197-5.303c2.929-2.929,2.929-7.678,0-10.606c-2.929-2.929-7.678-2.929-10.606,0   c-8.773,8.773-8.773,23.047,0,31.82c4.25,4.25,9.9,6.59,15.91,6.59s11.66-2.34,15.91-6.59c2.929-2.929,2.929-7.678,0-10.606   C364.362,163.376,359.613,163.376,356.684,166.305z" fill="#96362f"/><path d="M250.618,229.945c-1.417,1.417-3.3,2.197-5.303,2.197c-2.003,0-3.887-0.78-5.303-2.197   s-2.197-3.3-2.197-5.304c0-2.003,0.78-3.887,2.197-5.303c2.929-2.929,2.929-7.678,0-10.606c-2.929-2.929-7.678-2.929-10.606,0   c-4.25,4.25-6.59,9.9-6.59,15.91c0,6.01,2.34,11.661,6.59,15.91s9.9,6.59,15.91,6.59c6.01,0,11.66-2.34,15.91-6.59   c2.929-2.929,2.929-7.678,0-10.606C258.296,227.016,253.547,227.016,250.618,229.945z" fill="#96362f"/><path d="M257.69,180.447c-1.417,1.417-3.3,2.197-5.303,2.197c-2.003,0-3.887-0.78-5.304-2.197   s-2.197-3.3-2.197-5.304c0-2.003,0.78-3.887,2.197-5.303c2.929-2.929,2.929-7.678,0-10.606c-2.929-2.929-7.678-2.929-10.606,0   c-8.773,8.773-8.773,23.047,0,31.82c4.386,4.387,10.148,6.58,15.91,6.58c5.762,0,11.524-2.193,15.91-6.58   c2.929-2.929,2.929-7.678,0-10.606C265.367,177.518,260.618,177.518,257.69,180.447z" fill="#96362f"/><path d="M457.201,12.756c-18.951-18.951-56.378-16.692-105.388,6.36   c-15.309,7.201-31.145,16.128-46.989,26.402l-28.919-18.115c-2.691-1.685-6.151-1.494-8.639,0.478   c-25.697,20.363-50.715,44.341-72.35,69.341c-27.662,31.966-52.746,70.801-70.631,109.351c-0.483,1.042-0.721,2.18-0.695,3.328   l0.934,40.995c-6.613,14.858-11.951,29.483-15.852,43.589L21.123,345.03c-9.764,5.637-16.749,14.739-19.667,25.63   c-2.918,10.89-1.421,22.265,4.217,32.029c0.05,0.086,0.1,0.164,0.15,0.249c6.28,10.754,13.13,14.916,19.758,18.932   c4.294,2.602,8.349,5.06,12.897,9.607c4.547,4.548,7.005,8.603,9.607,12.897c4.017,6.627,8.178,13.478,18.93,19.756   c0.088,0.051,0.165,0.102,0.252,0.152c6.504,3.755,13.722,5.674,21.036,5.673c3.666,0,7.357-0.482,10.993-1.456   c10.89-2.918,19.992-9.902,25.629-19.667l50.546-87.548c20.312-5.625,41.719-14.274,63.167-25.303   c6.027,3.989,13.328,5.972,21.024,5.971c10.874,0,22.53-3.945,32.468-11.73c13.992-10.961,21.602-26.889,20.308-41.742   c12.088-9.459,23.735-19.512,34.73-30.011c2.281,0.277,4.586,0.43,6.914,0.43c18.225,0,37.521-8.371,52.436-23.204   c21.325-21.21,28.974-50.616,19.524-73.139c17.413-27.261,30.532-53.997,37.613-76.963C473.891,52.4,471.658,27.213,457.201,12.756   z M399.755,174.688c-2.406,3.372-1.623,8.056,1.749,10.461c1.321,0.942,2.842,1.396,4.35,1.396c2.341,0,4.648-1.093,6.111-3.144   c0.97-1.36,1.914-2.721,2.866-4.082c1.285,15.027-5.566,32.49-18.889,45.741c-9.799,9.746-21.741,16.063-33.496,18.118   c10.783-11.272,21.232-23.175,31.144-35.522c2.593-3.23,2.077-7.951-1.152-10.544c-3.23-2.594-7.951-2.078-10.544,1.152   c-12.033,14.986-24.863,29.314-38.134,42.586c-50.757,50.757-117.869,91.662-175.145,106.751c-1.934,0.509-3.584,1.771-4.584,3.502   l-52.095,90.23c-3.634,6.294-9.501,10.796-16.521,12.677c-4.416,1.184-8.955,1.239-13.283,0.213   c-2.552-0.605-5.03-1.584-7.364-2.932c-2.394-1.382-4.293-2.757-5.886-4.178c-3.472-3.098-5.484-6.416-7.968-10.514   c-1.88-3.103-3.933-6.484-6.826-10.125c-1.434-1.805-3.071-3.672-5.003-5.604c-1.932-1.932-3.799-3.569-5.604-5.003   c-3.642-2.893-7.023-4.946-10.125-6.826c-4.098-2.484-7.416-4.496-10.514-7.967c-1.421-1.593-2.796-3.492-4.178-5.886   c-1.363-2.361-2.326-4.845-2.92-7.372c-2.671-11.379,2.247-23.658,12.879-29.797l90.23-52.095c1.732-1,2.993-2.65,3.502-4.584   c8.594-32.623,25.404-68.448,48.613-103.603c2.282-3.457,1.33-8.109-2.127-10.391c-3.455-2.282-8.108-1.33-10.391,2.126   c-7.124,10.79-13.662,21.656-19.583,32.492l-0.243-10.655c17.263-36.8,41.235-73.769,67.633-104.274   c19.872-22.964,42.676-45.036,66.198-64.095l18.746,11.743c-25.3,17.634-50.242,38.443-72.702,60.905   c-14.841,14.84-29.126,31.327-42.458,49c-2.494,3.307-1.835,8.01,1.471,10.504c3.308,2.496,8.01,1.835,10.504-1.471   c12.914-17.12,26.738-33.077,41.089-47.427c39.341-39.341,86.393-73.423,129.09-93.507c42.238-19.867,74.458-23.267,88.397-9.327   C467.604,44.372,448.343,106.599,399.755,174.688z M282.881,318.415c-8.44,6.612-18.647,9.447-27.116,8.258   c13.567-7.769,27.035-16.427,40.14-25.811C293.628,307.273,289.11,313.536,282.881,318.415z" fill="#3d2a20"/><path d="M316.635,73.72c-21.252,14.171-42.706,31.055-62.043,48.826c-3.05,2.803-3.25,7.547-0.448,10.597   c1.479,1.609,3.499,2.425,5.524,2.425c1.813,0,3.632-0.654,5.073-1.978c18.776-17.255,39.598-33.642,60.216-47.391   c3.446-2.298,4.377-6.955,2.079-10.401C324.738,72.353,320.082,71.424,316.635,73.72z" fill="#ffffff"/><path d="M421.598,29.907c-7.555,0-24.266,1.786-51.306,13.749c-3.788,1.676-5.5,6.105-3.825,9.893   c1.24,2.802,3.985,4.468,6.863,4.468c1.014,0,2.044-0.207,3.03-0.643c24.518-10.847,38.867-12.467,45.237-12.467   c4.142,0,7.5-3.358,7.5-7.5S425.74,29.907,421.598,29.907z" fill="#ffffff"/></g><g transform="matrix(0.10638298094272614 0 0 0.10638298094272614 62.5 150)" id="L1_49"><path d="M358.392,170.146c-3.369,1.107-6.816,2.241-10.677,3.266v54.615   c0,19.692-16.021,35.714-35.714,35.714s-35.714-16.021-35.714-35.714v-56.813c-1.102-0.354-2.183-0.709-3.249-1.06   c-3.679-1.208-7.235-2.377-11.226-3.371v25.604c0,14.787-12.03,26.817-26.817,26.817s-26.817-12.03-26.817-26.817v-25.604   c-3.977,0.993-7.52,2.158-11.186,3.364c-7.473,2.458-15.201,4.999-26.912,6.242c-4.118,0.438-7.812-2.547-8.25-6.666   c-0.008-0.078-0.007-0.155-0.013-0.233c-2.352,0.11-4.844,0.174-7.531,0.174c-2.686,0-5.176-0.064-7.527-0.174   c-0.006,0.078-0.005,0.155-0.013,0.233c-0.409,3.85-3.663,6.708-7.449,6.709c-0.265,0-0.532-0.015-0.801-0.043   c-11.708-1.243-19.434-3.785-26.904-6.243c-7.188-2.366-14.088-4.633-24.757-5.672v188.89h296.331V164.475   C372.49,165.513,365.584,167.78,358.392,170.146z M133.453,285.4c-4.411,0-8-3.589-8-8s3.589-8,8-8s8,3.589,8,8   S137.864,285.4,133.453,285.4z M165.521,317.468c-4.411,0-8-3.589-8-8s3.589-8,8-8s8,3.589,8,8S169.932,317.468,165.521,317.468z" fill="#ffffff"/><path d="M161.817,169.491c-0.303-4.024,2.638-7.588,6.679-8.017c10.124-1.074,16.771-3.261,23.809-5.575   c6.418-2.111,13.054-4.294,22.276-5.656c2.158-0.318,4.346,0.316,5.997,1.742c1.651,1.425,2.6,3.497,2.6,5.678v34.725   c0,6.517,5.301,11.817,11.817,11.817s11.817-5.301,11.817-11.817v-34.725c0-2.181,0.949-4.253,2.6-5.678   c1.65-1.424,3.837-2.061,5.996-1.742c9.233,1.364,15.882,3.549,22.312,5.661c2.739,0.899,5.326,1.75,8.114,2.541   c3.226,0.915,5.453,3.861,5.453,7.215v62.367c0,11.422,9.292,20.714,20.714,20.714s20.714-9.292,20.714-20.714v-60.556   c0-3.565,2.51-6.638,6.003-7.35c5.615-1.143,10.168-2.64,14.988-4.225c9.183-3.021,18.639-6.13,35.21-6.855v-32.406H81.084v32.406   c16.565,0.727,26.019,3.837,35.197,6.856c7.034,2.314,13.679,4.501,23.799,5.576c4.041,0.429,6.981,3.993,6.679,8.017   c2.352,0.11,4.842,0.174,7.527,0.174C156.973,169.665,159.465,169.601,161.817,169.491z" fill="#6b4833"/><path d="M403.916,156.383v-39.748H462.5c4.142,0,7.5-3.357,7.5-7.5V61.57c0-4.143-3.358-7.5-7.5-7.5H7.5   c-4.142,0-7.5,3.357-7.5,7.5v47.564c0,4.143,3.358,7.5,7.5,7.5h58.584v39.748c0,3.539,2.454,6.497,5.75,7.286v189.696H7.5   c-4.142,0-7.5,3.357-7.5,7.5v47.564c0,4.143,3.358,7.5,7.5,7.5h455c4.142,0,7.5-3.357,7.5-7.5v-47.564c0-4.143-3.358-7.5-7.5-7.5   h-64.334V163.669C401.462,162.88,403.916,159.922,403.916,156.383z M455,400.93H15v-32.564h440V400.93z M86.834,353.365v-188.89   c10.67,1.039,17.57,3.306,24.757,5.672c7.471,2.458,15.196,5,26.904,6.243c0.269,0.028,0.536,0.043,0.801,0.043   c3.786-0.001,7.04-2.859,7.449-6.709c0.008-0.078,0.007-0.155,0.013-0.233c0.302-4.024-2.638-7.588-6.679-8.017   c-10.121-1.075-16.765-3.262-23.799-5.576c-9.178-3.02-18.631-6.13-35.197-6.856v-32.406h307.832v32.406   c-16.571,0.726-26.027,3.835-35.21,6.855c-4.82,1.585-9.373,3.082-14.988,4.225c-3.494,0.712-6.003,3.784-6.003,7.35v60.556   c0,11.422-9.292,20.714-20.714,20.714s-20.714-9.292-20.714-20.714v-62.367c0-3.354-2.227-6.3-5.453-7.215   c-2.788-0.791-5.375-1.642-8.114-2.541c-6.43-2.112-13.078-4.297-22.312-5.661c-2.159-0.318-4.346,0.318-5.996,1.742   c-1.651,1.425-2.6,3.497-2.6,5.678v34.725c0,6.517-5.301,11.817-11.817,11.817s-11.817-5.301-11.817-11.817v-34.725   c0-2.181-0.949-4.253-2.6-5.678c-1.651-1.426-3.838-2.061-5.997-1.742c-9.222,1.362-15.858,3.545-22.276,5.656   c-7.038,2.314-13.685,4.501-23.809,5.575c-4.041,0.429-6.982,3.993-6.679,8.017c0.006,0.078,0.005,0.154,0.013,0.233   c0.438,4.119,4.132,7.104,8.25,6.666c11.711-1.243,19.439-3.784,26.912-6.242c3.666-1.206,7.209-2.371,11.186-3.364v25.604   c0,14.787,12.03,26.817,26.817,26.817s26.817-12.03,26.817-26.817v-25.604c3.991,0.994,7.546,2.163,11.226,3.371   c1.066,0.351,2.146,0.705,3.249,1.06v56.813c0,19.692,16.021,35.714,35.714,35.714s35.714-16.021,35.714-35.714v-54.615   c3.861-1.024,7.308-2.158,10.677-3.266c7.193-2.365,14.098-4.633,24.774-5.671v188.891H86.834z M15,69.07h440v32.564H15V69.07z" fill="#3d2a20"/><path d="M165.521,301.468c-4.411,0-8,3.589-8,8s3.589,8,8,8s8-3.589,8-8S169.932,301.468,165.521,301.468z" fill="#3d2a20"/><path d="M133.453,269.4c-4.411,0-8,3.589-8,8s3.589,8,8,8s8-3.589,8-8S137.864,269.4,133.453,269.4z" fill="#3d2a20"/><rect x="15px" y="368px" width="440px" height="32px" fill="#ffcb59"/><rect x="15px" y="69px" width="440px" height="32px" fill="#ffcb59"/></g></defs><g fi:class="KUsePattern"><pattern id="pattern_L1_46" width="350" height="350" patternUnits="userSpaceOnUse"><use xlink:href="#L1_46" x="-350" y="-350"/><use xlink:href="#L1_46" x="0" y="-350"/><use xlink:href="#L1_46" x="350" y="-350"/><use xlink:href="#L1_46" x="-350" y="0"/><use xlink:href="#L1_46" x="0" y="0"/><use xlink:href="#L1_46" x="350" y="0"/><use xlink:href="#L1_46" x="-350" y="350"/><use xlink:href="#L1_46" x="0" y="350"/><use xlink:href="#L1_46" x="350" y="350"/></pattern><rect x="0" y="0" width="100%" height="100%" fill="url(#pattern_L1_46)"/></g><g fi:class="KUsePattern"><pattern id="pattern_L1_47" width="350" height="350" patternUnits="userSpaceOnUse"><use xlink:href="#L1_47" x="-350" y="-350"/><use xlink:href="#L1_47" x="0" y="-350"/><use xlink:href="#L1_47" x="350" y="-350"/><use xlink:href="#L1_47" x="-350" y="0"/><use xlink:href="#L1_47" x="0" y="0"/><use xlink:href="#L1_47" x="350" y="0"/><use xlink:href="#L1_47" x="-350" y="350"/><use xlink:href="#L1_47" x="0" y="350"/><use xlink:href="#L1_47" x="350" y="350"/></pattern><rect x="0" y="0" width="100%" height="100%" fill="url(#pattern_L1_47)"/></g><g fi:class="KUsePattern"><pattern id="pattern_L1_48" width="350" height="350" patternUnits="userSpaceOnUse"><use xlink:href="#L1_48" x="-350" y="-350"/><use xlink:href="#L1_48" x="0" y="-350"/><use xlink:href="#L1_48" x="350" y="-350"/><use xlink:href="#L1_48" x="-350" y="0"/><use xlink:href="#L1_48" x="0" y="0"/><use xlink:href="#L1_48" x="350" y="0"/><use xlink:href="#L1_48" x="-350" y="350"/><use xlink:href="#L1_48" x="0" y="350"/><use xlink:href="#L1_48" x="350" y="350"/></pattern><rect x="0" y="0" width="100%" height="100%" fill="url(#pattern_L1_48)"/></g><g fi:class="KUsePattern"><pattern id="pattern_L1_49" width="350" height="350" patternUnits="userSpaceOnUse"><use xlink:href="#L1_49" x="-350" y="-350"/><use xlink:href="#L1_49" x="0" y="-350"/><use xlink:href="#L1_49" x="350" y="-350"/><use xlink:href="#L1_49" x="-350" y="0"/><use xlink:href="#L1_49" x="0" y="0"/><use xlink:href="#L1_49" x="350" y="0"/><use xlink:href="#L1_49" x="-350" y="350"/><use xlink:href="#L1_49" x="0" y="350"/><use xlink:href="#L1_49" x="350" y="350"/></pattern><rect x="0" y="0" width="100%" height="100%" fill="url(#pattern_L1_49)"/></g></svg>